font.ufo
<glyph name="anusvara" format="1">
  <advance width="364"/>
  <unicode hex="0D82"/>
  <outline>
    <contour>
      <point x="67" y="176" type="curve" smooth="yes"/>
      <point x="67" y="120"/>
      <point x="114" y="74"/>
      <point x="173" y="74" type="curve" smooth="yes"/>
      <point x="232" y="74"/>
      <point x="279" y="120"/>
      <point x="279" y="176" type="curve" smooth="yes"/>
      <point x="279" y="232"/>
      <point x="232" y="278"/>
      <point x="173" y="278" type="curve" smooth="yes"/>
      <point x="114" y="278"/>
      <point x="67" y="232"/>
    </contour>
    <contour>
      <point x="30" y="165" type="curve" smooth="yes"/>
      <point x="30" y="242"/>
      <point x="94" y="305"/>
      <point x="173" y="305" type="curve" smooth="yes"/>
      <point x="252" y="305"/>
      <point x="316" y="242"/>
      <point x="316" y="165" type="curve" smooth="yes"/>
      <point x="316" y="88"/>
      <point x="252" y="25"/>
      <point x="173" y="25" type="curve" smooth="yes"/>
      <point x="94" y="25"/>
      <point x="30" y="88"/>
    </contour>
  </outline>
</glyph>
<glyph name="si_E" format="1">
  <advance width="595"/>
  <unicode hex="0D91"/>
  <outline>
    <contour>
      <point x="45" y="165" type="curve" smooth="yes"/>
      <point x="45" y="196"/>
      <point x="55" y="228"/>
      <point x="78" y="248" type="curve" smooth="yes"/>
      <point x="94" y="262"/>
      <point x="113" y="273"/>
      <point x="139" y="278" type="curve"/>
      <point x="173" y="290"/>
      <point x="214" y="302"/>
      <point x="251" y="302" type="curve" smooth="yes"/>
      <point x="263" y="302" type="line"/>
      <point x="263" y="304"/>
      <point x="263" y="306"/>
      <point x="263" y="308" type="curve" smooth="yes"/>
      <point x="263" y="356"/>
      <point x="228" y="395"/>
      <point x="191" y="395" type="curve" smooth="yes"/>
      <point x="152" y="395"/>
      <point x="143" y="374"/>
      <point x="138" y="356" type="curve" smooth="yes"/>
      <point x="134" y="336"/>
      <point x="123" y="323"/>
      <point x="101" y="323" type="curve" smooth="yes"/>
      <point x="85" y="323"/>
      <point x="64" y="333"/>
      <point x="64" y="360" type="curve" smooth="yes"/>
      <point x="64" y="403"/>
      <point x="107" y="432"/>
      <point x="165" y="432" type="curve" smooth="yes"/>
      <point x="253" y="432"/>
      <point x="295" y="363"/>
      <point x="295" y="290" type="curve" smooth="yes"/>
      <point x="295" y="287"/>
      <point x="295" y="280"/>
      <point x="295" y="277" type="curve"/>
      <point x="231" y="277" type="line" smooth="yes"/>
      <point x="187" y="277"/>
      <point x="147" y="265"/>
      <point x="122" y="249" type="curve" smooth="yes"/>
      <point x="95" y="232"/>
      <point x="82" y="206"/>
      <point x="82" y="180" type="curve" smooth="yes"/>
      <point x="82" y="94"/>
      <point x="189" y="71"/>
      <point x="279" y="71" type="curve" smooth="yes"/>
      <point x="432" y="71"/>
      <point x="513" y="148"/>
      <point x="513" y="267" type="curve" smooth="yes"/>
      <point x="513" y="324"/>
      <point x="496" y="376"/>
      <point x="471" y="412" type="curve"/>
      <point x="456" y="379"/>
      <point x="426" y="359"/>
      <point x="383" y="359" type="curve" smooth="yes"/>
      <point x="320" y="359"/>
      <point x="283" y="414"/>
      <point x="283" y="480" type="curve" smooth="yes"/>
      <point x="283" y="530"/>
      <point x="298" y="566"/>
      <point x="325" y="597" type="curve"/>
      <point x="386" y="564"/>
      <point x="457" y="492"/>
      <point x="493" y="430" type="curve" smooth="yes"/>
      <point x="532" y="363"/>
      <point x="545" y="315"/>
      <point x="545" y="245" type="curve" smooth="yes"/>
      <point x="545" y="117"/>
      <point x="459" y="0"/>
      <point x="276" y="0" type="curve" smooth="yes"/>
      <point x="155" y="0"/>
      <point x="45" y="46"/>
    </contour>
    <contour>
      <point x="16" y="270" type="curve"/>
      <point x="16" y="302" type="line"/>
      <point x="261" y="302" type="line"/>
      <point x="291" y="277" type="line"/>
      <point x="129" y="277" type="line" smooth="yes"/>
      <point x="58" y="276"/>
      <point x="32" y="273"/>
    </contour>
    <contour>
      <point x="313" y="484" type="curve" smooth="yes"/>
      <point x="313" y="435"/>
      <point x="333" y="395"/>
      <point x="390" y="395" type="curve" smooth="yes"/>
      <point x="414" y="395"/>
      <point x="442" y="406"/>
      <point x="452" y="440" type="curve"/>
      <point x="422" y="486"/>
      <point x="372" y="532"/>
      <point x="334" y="560" type="curve"/>
      <point x="322" y="542"/>
      <point x="313" y="519"/>
    </contour>
  </outline>
</glyph>
<glyph name="si_Bha" format="1">
  <advance width="670"/>
  <unicode hex="0DB7"/>
  <outline>
    <contour>
      <point x="6" y="271" type="curve"/>
      <point x="6" y="303" type="line"/>
      <point x="212" y="303" type="line"/>
      <point x="171" y="278" type="line"/>
      <point x="140" y="278" type="line" smooth="yes"/>
      <point x="69" y="277"/>
      <point x="22" y="274"/>
    </contour>
    <contour>
      <point x="49" y="155" type="curve" smooth="yes"/>
      <point x="49" y="253"/>
      <point x="148" y="303"/>
      <point x="218" y="303" type="curve" smooth="yes"/>
      <point x="222" y="303"/>
      <point x="218" y="303"/>
      <point x="222" y="303" type="curve"/>
      <point x="222" y="345"/>
      <point x="198" y="383"/>
      <point x="160" y="383" type="curve" smooth="yes"/>
      <point x="140" y="383"/>
      <point x="128" y="371"/>
      <point x="122" y="356" type="curve" smooth="yes"/>
      <point x="116" y="340"/>
      <point x="103" y="327"/>
      <point x="82" y="327" type="curve" smooth="yes"/>
      <point x="62" y="327"/>
      <point x="49" y="341"/>
      <point x="49" y="364" type="curve" smooth="yes"/>
      <point x="49" y="394"/>
      <point x="78" y="432"/>
      <point x="134" y="432" type="curve" smooth="yes"/>
      <point x="213" y="432"/>
      <point x="254" y="360"/>
      <point x="255" y="278" type="curve"/>
      <point x="243" y="280"/>
      <point x="233" y="280"/>
      <point x="229" y="280" type="curve" smooth="yes"/>
      <point x="163" y="280"/>
      <point x="86" y="245"/>
      <point x="86" y="175" type="curve" smooth="yes"/>
      <point x="86" y="106"/>
      <point x="150" y="72"/>
      <point x="224" y="72" type="curve" smooth="yes"/>
      <point x="290" y="72"/>
      <point x="346" y="100"/>
      <point x="346" y="164" type="curve" smooth="yes"/>
      <point x="346" y="195"/>
      <point x="331" y="212"/>
      <point x="311" y="212" type="curve" smooth="yes"/>
      <point x="298" y="212"/>
      <point x="284" y="203"/>
      <point x="277" y="182" type="curve"/>
      <point x="255" y="192" type="line"/>
      <point x="264" y="317"/>
      <point x="345" y="432"/>
      <point x="446" y="432" type="curve" smooth="yes"/>
      <point x="558" y="432"/>
      <point x="621" y="329"/>
      <point x="621" y="211" type="curve" smooth="yes"/>
      <point x="621" y="92"/>
      <point x="532" y="-1"/>
      <point x="409" y="-1" type="curve" smooth="yes"/>
      <point x="396" y="-1"/>
      <point x="382" y="0"/>
      <point x="368" y="2" type="curve"/>
      <point x="368" y="29" type="line"/>
      <point x="380" y="27"/>
      <point x="392" y="26"/>
      <point x="404" y="26" type="curve" smooth="yes"/>
      <point x="503" y="26"/>
      <point x="573" y="93"/>
      <point x="573" y="193" type="curve" smooth="yes"/>
      <point x="573" y="288"/>
      <point x="521" y="362"/>
      <point x="430" y="362" type="curve" smooth="yes"/>
      <point x="357" y="362"/>
      <point x="309" y="318"/>
      <point x="287" y="229" type="curve"/>
      <point x="297" y="235"/>
      <point x="307" y="237"/>
      <point x="316" y="237" type="curve" smooth="yes"/>
      <point x="354" y="237"/>
      <point x="382" y="199"/>
      <point x="382" y="145" type="curve" smooth="yes"/>
      <point x="382" y="53"/>
      <point x="312" y="-1"/>
      <point x="217" y="-1" type="curve" smooth="yes"/>
      <point x="119" y="-1"/>
      <point x="49" y="61"/>
    </contour>
  </outline>
</glyph>
<glyph name="si_Ha" format="1">
  <advance width="653"/>
  <unicode hex="0DC4"/>
  <outline>
    <contour>
      <point x="33" y="155" type="curve" smooth="yes"/>
      <point x="33" y="246"/>
      <point x="100" y="303"/>
      <point x="194" y="303" type="curve" smooth="yes"/>
      <point x="198" y="303"/>
      <point x="202" y="303"/>
      <point x="206" y="303" type="curve"/>
      <point x="206" y="345"/>
      <point x="182" y="383"/>
      <point x="144" y="383" type="curve" smooth="yes"/>
      <point x="124" y="383"/>
      <point x="112" y="371"/>
      <point x="106" y="356" type="curve" smooth="yes"/>
      <point x="100" y="340"/>
      <point x="87" y="327"/>
      <point x="66" y="327" type="curve" smooth="yes"/>
      <point x="46" y="327"/>
      <point x="33" y="341"/>
      <point x="33" y="364" type="curve" smooth="yes"/>
      <point x="33" y="394"/>
      <point x="62" y="432"/>
      <point x="118" y="432" type="curve" smooth="yes"/>
      <point x="197" y="432"/>
      <point x="238" y="360"/>
      <point x="239" y="278" type="curve"/>
      <point x="227" y="279"/>
      <point x="216" y="280"/>
      <point x="205" y="280" type="curve" smooth="yes"/>
      <point x="125" y="280"/>
      <point x="70" y="245"/>
      <point x="70" y="175" type="curve" smooth="yes"/>
      <point x="70" y="106"/>
      <point x="134" y="72"/>
      <point x="208" y="72" type="curve" smooth="yes"/>
      <point x="274" y="72"/>
      <point x="330" y="100"/>
      <point x="330" y="164" type="curve" smooth="yes"/>
      <point x="330" y="195"/>
      <point x="315" y="212"/>
      <point x="295" y="212" type="curve" smooth="yes"/>
      <point x="282" y="212"/>
      <point x="268" y="203"/>
      <point x="261" y="182" type="curve"/>
      <point x="239" y="192" type="line"/>
      <point x="248" y="317"/>
      <point x="329" y="432"/>
      <point x="430" y="432" type="curve" smooth="yes"/>
      <point x="542" y="432"/>
      <point x="605" y="329"/>
      <point x="605" y="211" type="curve" smooth="yes"/>
      <point x="605" y="92"/>
      <point x="516" y="-1"/>
      <point x="393" y="-1" type="curve" smooth="yes"/>
      <point x="380" y="-1"/>
      <point x="366" y="0"/>
      <point x="352" y="2" type="curve"/>
      <point x="352" y="29" type="line"/>
      <point x="364" y="27"/>
      <point x="376" y="26"/>
      <point x="388" y="26" type="curve" smooth="yes"/>
      <point x="487" y="26"/>
      <point x="557" y="93"/>
      <point x="557" y="193" type="curve" smooth="yes"/>
      <point x="557" y="288"/>
      <point x="505" y="362"/>
      <point x="414" y="362" type="curve" smooth="yes"/>
      <point x="341" y="362"/>
      <point x="293" y="318"/>
      <point x="271" y="229" type="curve"/>
      <point x="281" y="235"/>
      <point x="291" y="237"/>
      <point x="300" y="237" type="curve" smooth="yes"/>
      <point x="338" y="237"/>
      <point x="366" y="199"/>
      <point x="366" y="145" type="curve" smooth="yes"/>
      <point x="366" y="53"/>
      <point x="296" y="-1"/>
      <point x="201" y="-1" type="curve" smooth="yes"/>
      <point x="103" y="-1"/>
      <point x="33" y="61"/>
    </contour>
  </outline>
</glyph>
<glyph name="si_MatraAe" format="1">
  <advance width="334"/>
  <unicode hex="0DD0"/>
  <outline>
    <contour>
      <point x="3" y="313" type="line"/>
      <point x="3" y="339" type="line"/>
      <point x="249" y="339" type="line"/>
      <point x="248" y="337"/>
      <point x="247" y="332"/>
      <point x="246" y="323" type="curve"/>
      <point x="178" y="223"/>
      <point x="153" y="129"/>
      <point x="153" y="50" type="curve" smooth="yes"/>
      <point x="153" y="-54"/>
      <point x="206" y="-93"/>
      <point x="264" y="-93" type="curve" smooth="yes"/>
      <point x="277" y="-93"/>
      <point x="289" y="-91"/>
      <point x="302" y="-88" type="curve"/>
      <point x="306" y="-106" type="line"/>
      <point x="279" y="-137"/>
      <point x="248" y="-147"/>
      <point x="207" y="-147" type="curve" smooth="yes"/>
      <point x="122" y="-147"/>
      <point x="84" y="-73"/>
      <point x="84" y="14" type="curve" smooth="yes"/>
      <point x="84" y="133"/>
      <point x="158" y="254"/>
      <point x="211" y="313" type="curve"/>
    </contour>
  </outline>
</glyph>
<glyph name="si_MatraLs" format="1">
  <advance width="441"/>
  <unicode hex="0DDF"/>
  <outline>
    <contour>
      <point x="33" y="321" type="curve" smooth="yes"/>
      <point x="33" y="370"/>
      <point x="49" y="404"/>
      <point x="70" y="428" type="curve"/>
      <point x="105" y="428" type="line"/>
      <point x="83" y="410"/>
      <point x="62" y="375"/>
      <point x="62" y="322" type="curve" smooth="yes"/>
      <point x="62" y="276"/>
      <point x="88" y="238"/>
      <point x="134" y="238" type="curve" smooth="yes"/>
      <point x="168" y="238"/>
      <point x="186" y="261"/>
      <point x="186" y="290" type="curve" smooth="yes"/>
      <point x="186" y="307"/>
      <point x="179" y="323"/>
      <point x="166" y="337" type="curve"/>
      <point x="165" y="342"/>
      <point x="165" y="344"/>
      <point x="165" y="349" type="curve" smooth="yes"/>
      <point x="165" y="398"/>
      <point x="193" y="432"/>
      <point x="259" y="432" type="curve" smooth="yes"/>
      <point x="362" y="432"/>
      <point x="393" y="316"/>
      <point x="393" y="220" type="curve" smooth="yes"/>
      <point x="393" y="101"/>
      <point x="350" y="-2"/>
      <point x="245" y="-2" type="curve" smooth="yes"/>
      <point x="171" y="-2"/>
      <point x="134" y="54"/>
      <point x="134" y="120" type="curve" smooth="yes"/>
      <point x="134" y="132"/>
      <point x="135" y="144"/>
      <point x="138" y="157" type="curve"/>
      <point x="164" y="157" type="line"/>
      <point x="162" y="146"/>
      <point x="161" y="136"/>
      <point x="161" y="125" type="curve" smooth="yes"/>
      <point x="161" y="71"/>
      <point x="188" y="26"/>
      <point x="241" y="26" type="curve" smooth="yes"/>
      <point x="300" y="26"/>
      <point x="323" y="100"/>
      <point x="323" y="238" type="curve" smooth="yes"/>
      <point x="323" y="350"/>
      <point x="296" y="407"/>
      <point x="248" y="407" type="curve" smooth="yes"/>
      <point x="214" y="407"/>
      <point x="193" y="389"/>
      <point x="193" y="350" type="curve" smooth="yes"/>
      <point x="193" y="348"/>
      <point x="193" y="345"/>
      <point x="193" y="343" type="curve"/>
      <point x="217" y="330"/>
      <point x="229" y="312"/>
      <point x="229" y="288" type="curve" smooth="yes"/>
      <point x="229" y="238"/>
      <point x="185" y="212"/>
      <point x="135" y="212" type="curve" smooth="yes"/>
      <point x="72" y="212"/>
      <point x="33" y="261"/>
    </contour>
  </outline>
</glyph>
<glyph name="dottedcircle" format="1">
  <advance width="558"/>
  <unicode hex="25CC"/>
  <outline>
    <contour>
      <point x="106" y="96" type="curve" smooth="yes"/>
      <point x="107" y="111"/>
      <point x="115" y="118"/>
      <point x="129" y="118" type="curve" smooth="yes"/>
      <point x="145" y="118"/>
      <point x="152" y="111"/>
      <point x="151" y="96" type="curve" smooth="yes"/>
      <point x="151" y="81"/>
      <point x="143" y="74"/>
      <point x="129" y="74" type="curve" smooth="yes"/>
      <point x="113" y="74"/>
      <point x="106" y="81"/>
    </contour>
    <contour>
      <point x="64" y="164" type="curve" smooth="yes"/>
      <point x="65" y="178"/>
      <point x="72" y="186"/>
      <point x="86" y="186" type="curve" smooth="yes"/>
      <point x="101" y="186"/>
      <point x="108" y="178"/>
      <point x="107" y="164" type="curve" smooth="yes"/>
      <point x="106" y="148"/>
      <point x="99" y="141"/>
      <point x="85" y="141" type="curve" smooth="yes"/>
      <point x="71" y="141"/>
      <point x="63" y="148"/>
    </contour>
    <contour>
      <point x="172" y="53" type="curve" smooth="yes"/>
      <point x="172" y="68"/>
      <point x="180" y="75"/>
      <point x="194" y="75" type="curve" smooth="yes"/>
      <point x="209" y="75"/>
      <point x="216" y="68"/>
      <point x="216" y="53" type="curve" smooth="yes"/>
      <point x="215" y="38"/>
      <point x="207" y="31"/>
      <point x="193" y="31" type="curve" smooth="yes"/>
      <point x="178" y="31"/>
      <point x="171" y="38"/>
    </contour>
    <contour>
      <point x="248" y="37" type="curve" smooth="yes"/>
      <point x="249" y="52"/>
      <point x="256" y="59"/>
      <point x="270" y="59" type="curve" smooth="yes"/>
      <point x="285" y="59"/>
      <point x="292" y="52"/>
      <point x="291" y="37" type="curve" smooth="yes"/>
      <point x="290" y="22"/>
      <point x="283" y="15"/>
      <point x="269" y="15" type="curve" smooth="yes"/>
      <point x="254" y="15"/>
      <point x="247" y="22"/>
    </contour>
    <contour>
      <point x="50" y="240" type="curve" smooth="yes"/>
      <point x="50" y="255"/>
      <point x="57" y="262"/>
      <point x="72" y="262" type="curve" smooth="yes"/>
      <point x="87" y="262"/>
      <point x="95" y="255"/>
      <point x="94" y="240" type="curve" smooth="yes"/>
      <point x="93" y="225"/>
      <point x="86" y="218"/>
      <point x="72" y="218" type="curve" smooth="yes"/>
      <point x="56" y="218"/>
      <point x="49" y="225"/>
    </contour>
    <contour>
      <point x="67" y="316" type="curve" smooth="yes"/>
      <point x="68" y="332"/>
      <point x="76" y="339"/>
      <point x="90" y="339" type="curve" smooth="yes"/>
      <point x="104" y="339"/>
      <point x="111" y="332"/>
      <point x="110" y="316" type="curve" smooth="yes"/>
      <point x="109" y="302"/>
      <point x="102" y="294"/>
      <point x="90" y="294" type="curve" smooth="yes"/>
      <point x="74" y="294"/>
      <point x="66" y="302"/>
    </contour>
    <contour>
      <point x="327" y="53" type="curve" smooth="yes"/>
      <point x="327" y="68"/>
      <point x="335" y="75"/>
      <point x="349" y="75" type="curve" smooth="yes"/>
      <point x="364" y="75"/>
      <point x="371" y="68"/>
      <point x="371" y="53" type="curve" smooth="yes"/>
      <point x="370" y="38"/>
      <point x="362" y="31"/>
      <point x="348" y="31" type="curve" smooth="yes"/>
      <point x="333" y="31"/>
      <point x="326" y="38"/>
    </contour>
    <contour>
      <point x="112" y="384" type="curve" smooth="yes"/>
      <point x="113" y="398"/>
      <point x="121" y="405"/>
      <point x="135" y="405" type="curve" smooth="yes"/>
      <point x="150" y="405"/>
      <point x="157" y="398"/>
      <point x="156" y="384" type="curve" smooth="yes"/>
      <point x="155" y="369"/>
      <point x="147" y="362"/>
      <point x="133" y="362" type="curve" smooth="yes"/>
      <point x="118" y="362"/>
      <point x="111" y="369"/>
    </contour>
    <contour>
      <point x="394" y="96" type="curve" smooth="yes"/>
      <point x="395" y="111"/>
      <point x="402" y="118"/>
      <point x="416" y="118" type="curve" smooth="yes"/>
      <point x="431" y="118"/>
      <point x="438" y="111"/>
      <point x="437" y="96" type="curve" smooth="yes"/>
      <point x="436" y="81"/>
      <point x="428" y="74"/>
      <point x="415" y="74" type="curve" smooth="yes"/>
      <point x="400" y="74"/>
      <point x="393" y="81"/>
    </contour>
    <contour>
      <point x="178" y="428" type="curve" smooth="yes"/>
      <point x="179" y="442"/>
      <point x="186" y="450"/>
      <point x="201" y="450" type="curve" smooth="yes"/>
      <point x="216" y="450"/>
      <point x="223" y="442"/>
      <point x="222" y="428" type="curve" smooth="yes"/>
      <point x="222" y="412"/>
      <point x="214" y="405"/>
      <point x="200" y="405" type="curve" smooth="yes"/>
      <point x="185" y="405"/>
      <point x="178" y="412"/>
    </contour>
    <contour>
      <point x="438" y="164" type="curve" smooth="yes"/>
      <point x="439" y="178"/>
      <point x="446" y="186"/>
      <point x="461" y="186" type="curve" smooth="yes"/>
      <point x="476" y="186"/>
      <point x="484" y="178"/>
      <point x="483" y="164" type="curve" smooth="yes"/>
      <point x="482" y="148"/>
      <point x="474" y="141"/>
      <point x="459" y="141" type="curve" smooth="yes"/>
      <point x="444" y="141"/>
      <point x="437" y="148"/>
    </contour>
    <contour>
      <point x="256" y="442" type="curve" smooth="yes"/>
      <point x="257" y="458"/>
      <point x="264" y="465"/>
      <point x="278" y="465" type="curve" smooth="yes"/>
      <point x="293" y="465"/>
      <point x="300" y="458"/>
      <point x="299" y="442" type="curve" smooth="yes"/>
      <point x="299" y="428"/>
      <point x="291" y="420"/>
      <point x="277" y="420" type="curve" smooth="yes"/>
      <point x="263" y="420"/>
      <point x="256" y="428"/>
    </contour>
    <contour>
      <point x="454" y="240" type="curve" smooth="yes"/>
      <point x="455" y="255"/>
      <point x="462" y="262"/>
      <point x="477" y="262" type="curve" smooth="yes"/>
      <point x="492" y="262"/>
      <point x="500" y="255"/>
      <point x="499" y="240" type="curve" smooth="yes"/>
      <point x="498" y="225"/>
      <point x="491" y="218"/>
      <point x="477" y="218" type="curve" smooth="yes"/>
      <point x="461" y="218"/>
      <point x="454" y="225"/>
    </contour>
    <contour>
      <point x="333" y="428" type="curve" smooth="yes"/>
      <point x="334" y="442"/>
      <point x="341" y="450"/>
      <point x="356" y="450" type="curve" smooth="yes"/>
      <point x="371" y="450"/>
      <point x="378" y="442"/>
      <point x="377" y="428" type="curve" smooth="yes"/>
      <point x="377" y="412"/>
      <point x="369" y="405"/>
      <point x="355" y="405" type="curve" smooth="yes"/>
      <point x="340" y="405"/>
      <point x="333" y="412"/>
    </contour>
    <contour>
      <point x="441" y="316" type="curve" smooth="yes"/>
      <point x="442" y="332"/>
      <point x="449" y="339"/>
      <point x="464" y="339" type="curve" smooth="yes"/>
      <point x="479" y="339"/>
      <point x="487" y="332"/>
      <point x="486" y="316" type="curve" smooth="yes"/>
      <point x="485" y="302"/>
      <point x="478" y="294"/>
      <point x="463" y="294" type="curve" smooth="yes"/>
      <point x="448" y="294"/>
      <point x="440" y="302"/>
    </contour>
    <contour>
      <point x="398" y="384" type="curve" smooth="yes"/>
      <point x="398" y="398"/>
      <point x="406" y="405"/>
      <point x="421" y="405" type="curve" smooth="yes"/>
      <point x="436" y="405"/>
      <point x="444" y="398"/>
      <point x="443" y="384" type="curve" smooth="yes"/>
      <point x="442" y="369"/>
      <point x="434" y="362"/>
      <point x="420" y="362" type="curve" smooth="yes"/>
      <point x="404" y="362"/>
      <point x="397" y="369"/>
    </contour>
  </outline>
</glyph>
<glyph name="si_Ba.reph" format="1">
  <advance width="619"/>
  <outline>
    <contour>
      <point x="260" y="628" type="curve" smooth="yes"/>
      <point x="260" y="649"/>
      <point x="279" y="665"/>
      <point x="301" y="665" type="curve" smooth="yes"/>
      <point x="323" y="665"/>
      <point x="342" y="649"/>
      <point x="342" y="628" type="curve" smooth="yes"/>
      <point x="342" y="607"/>
      <point x="323" y="591"/>
      <point x="301" y="591" type="curve" smooth="yes"/>
      <point x="279" y="591"/>
      <point x="260" y="607"/>
    </contour>
    <contour>
      <point x="158" y="647" type="curve" smooth="yes"/>
      <point x="158" y="591"/>
      <point x="217" y="562"/>
      <point x="276" y="562" type="curve" smooth="yes"/>
      <point x="334" y="562"/>
      <point x="369" y="588"/>
      <point x="369" y="627" type="curve" smooth="yes"/>
      <point x="369" y="662"/>
      <point x="341" y="689"/>
      <point x="300" y="689" type="curve" smooth="yes"/>
      <point x="264" y="689"/>
      <point x="233" y="664"/>
      <point x="233" y="629" type="curve" smooth="yes"/>
      <point x="233" y="608"/>
      <point x="246" y="593"/>
      <point x="254" y="587" type="curve"/>
      <point x="230" y="589"/>
      <point x="189" y="608"/>
      <point x="189" y="647" type="curve" smooth="yes"/>
      <point x="189" y="700"/>
      <point x="244" y="721"/>
      <point x="297" y="721" type="curve" smooth="yes"/>
      <point x="358" y="721"/>
      <point x="409" y="690"/>
      <point x="409" y="633" type="curve" smooth="yes"/>
      <point x="409" y="606"/>
      <point x="393" y="581"/>
      <point x="380" y="569" type="curve"/>
      <point x="414" y="569" type="line"/>
      <point x="431" y="588"/>
      <point x="439" y="610"/>
      <point x="439" y="634" type="curve" smooth="yes"/>
      <point x="439" y="705"/>
      <point x="375" y="748"/>
      <point x="298" y="748" type="curve" smooth="yes"/>
      <point x="216" y="748"/>
      <point x="158" y="711"/>
    </contour>
    <component base="si_Ba"/>
  </outline>
</glyph>
<glyph name="si_C.halant" format="1">
  <advance width="621"/>
  <outline>
    <contour>
      <point x="139" y="543" type="curve" smooth="yes"/>
      <point x="139" y="567"/>
      <point x="212" y="590"/>
      <point x="284" y="590" type="curve" smooth="yes"/>
      <point x="400" y="590"/>
      <point x="494" y="537"/>
      <point x="527" y="422" type="curve"/>
      <point x="479" y="485"/>
      <point x="387" y="519"/>
      <point x="279" y="519" type="curve" smooth="yes"/>
      <point x="233" y="519"/>
      <point x="193" y="514"/>
      <point x="160" y="508" type="curve"/>
      <point x="162" y="510"/>
      <point x="163" y="513"/>
      <point x="163" y="515" type="curve" smooth="yes"/>
      <point x="163" y="526"/>
      <point x="139" y="531"/>
    </contour>
    <contour>
      <point x="42" y="442" type="line"/>
      <point x="123" y="480"/>
      <point x="195" y="494"/>
      <point x="271" y="494" type="curve" smooth="yes"/>
      <point x="446" y="494"/>
      <point x="539" y="413"/>
      <point x="539" y="298" type="curve" smooth="yes"/>
      <point x="539" y="294"/>
      <point x="539" y="287"/>
      <point x="539" y="279" type="curve"/>
      <point x="577" y="267" type="line"/>
      <point x="577" y="301"/>
      <point x="572" y="343"/>
      <point x="569" y="356" type="curve"/>
      <point x="557" y="490"/>
      <point x="486" y="629"/>
      <point x="278" y="629" type="curve" smooth="yes"/>
      <point x="163" y="629"/>
      <point x="98" y="583"/>
      <point x="98" y="546" type="curve" smooth="yes"/>
      <point x="98" y="524"/>
      <point x="126" y="520"/>
      <point x="126" y="508" type="curve" smooth="yes"/>
      <point x="126" y="499"/>
      <point x="74" y="485"/>
      <point x="42" y="473" type="curve"/>
    </contour>
    <contour>
      <point x="64" y="165" type="curve" smooth="yes"/>
      <point x="64" y="196"/>
      <point x="74" y="228"/>
      <point x="97" y="248" type="curve" smooth="yes"/>
      <point x="113" y="262"/>
      <point x="132" y="273"/>
      <point x="158" y="278" type="curve"/>
      <point x="192" y="290"/>
      <point x="233" y="302"/>
      <point x="270" y="302" type="curve" smooth="yes"/>
      <point x="287" y="302" type="line"/>
      <point x="287" y="304"/>
      <point x="287" y="306"/>
      <point x="287" y="308" type="curve" smooth="yes"/>
      <point x="287" y="362"/>
      <point x="254" y="395"/>
      <point x="215" y="395" type="curve" smooth="yes"/>
      <point x="169" y="395"/>
      <point x="162" y="371"/>
      <point x="158" y="355" type="curve" smooth="yes"/>
      <point x="152" y="336"/>
      <point x="141" y="323"/>
      <point x="120" y="323" type="curve" smooth="yes"/>
      <point x="104" y="323"/>
      <point x="83" y="334"/>
      <point x="83" y="360" type="curve" smooth="yes"/>
      <point x="83" y="404"/>
      <point x="133" y="432"/>
      <point x="188" y="432" type="curve" smooth="yes"/>
      <point x="276" y="432"/>
      <point x="319" y="376"/>
      <point x="319" y="290" type="curve" smooth="yes"/>
      <point x="319" y="287"/>
      <point x="319" y="280"/>
      <point x="319" y="277" type="curve"/>
      <point x="250" y="277" type="line" smooth="yes"/>
      <point x="206" y="277"/>
      <point x="166" y="265"/>
      <point x="141" y="249" type="curve" smooth="yes"/>
      <point x="114" y="232"/>
      <point x="101" y="206"/>
      <point x="101" y="180" type="curve" smooth="yes"/>
      <point x="101" y="94"/>
      <point x="208" y="71"/>
      <point x="298" y="71" type="curve" smooth="yes"/>
      <point x="451" y="71"/>
      <point x="539" y="156"/>
      <point x="539" y="304" type="curve"/>
      <point x="577" y="274" type="line"/>
      <point x="577" y="114"/>
      <point x="478" y="0"/>
      <point x="295" y="0" type="curve" smooth="yes"/>
      <point x="174" y="0"/>
      <point x="64" y="46"/>
    </contour>
    <contour>
      <point x="14" y="270" type="curve"/>
      <point x="14" y="302" type="line"/>
      <point x="285" y="302" type="line"/>
      <point x="315" y="277" type="line"/>
      <point x="148" y="277" type="line" smooth="yes"/>
      <point x="77" y="276"/>
      <point x="30" y="273"/>
    </contour>
  </outline>
</glyph>
<glyph name="si_Ca.reph" format="1">
  <advance width="597"/>
  <outline>
    <contour>
      <point x="274" y="516" type="curve" smooth="yes"/>
      <point x="274" y="495"/>
      <point x="292" y="478"/>
      <point x="314" y="478" type="curve" smooth="yes"/>
      <point x="337" y="478"/>
      <point x="355" y="495"/>
      <point x="355" y="516" type="curve" smooth="yes"/>
      <point x="355" y="536"/>
      <point x="337" y="553"/>
      <point x="314" y="553" type="curve" smooth="yes"/>
      <point x="292" y="553"/>
      <point x="274" y="536"/>
    </contour>
    <contour>
      <point x="172" y="534" type="curve" smooth="yes"/>
      <point x="172" y="598"/>
      <point x="230" y="636"/>
      <point x="312" y="636" type="curve" smooth="yes"/>
      <point x="388" y="636"/>
      <point x="452" y="592"/>
      <point x="452" y="522" type="curve" smooth="yes"/>
      <point x="452" y="498"/>
      <point x="444" y="476"/>
      <point x="428" y="456" type="curve"/>
      <point x="394" y="456" type="line"/>
      <point x="407" y="469"/>
      <point x="422" y="493"/>
      <point x="422" y="520" type="curve" smooth="yes"/>
      <point x="422" y="578"/>
      <point x="372" y="608"/>
      <point x="310" y="608" type="curve" smooth="yes"/>
      <point x="258" y="608"/>
      <point x="203" y="587"/>
      <point x="203" y="534" type="curve" smooth="yes"/>
      <point x="203" y="495"/>
      <point x="244" y="477"/>
      <point x="267" y="475" type="curve"/>
      <point x="259" y="481"/>
      <point x="246" y="496"/>
      <point x="246" y="516" type="curve" smooth="yes"/>
      <point x="246" y="552"/>
      <point x="278" y="576"/>
      <point x="314" y="576" type="curve" smooth="yes"/>
      <point x="354" y="576"/>
      <point x="382" y="550"/>
      <point x="382" y="514" type="curve" smooth="yes"/>
      <point x="382" y="476"/>
      <point x="348" y="450"/>
      <point x="290" y="450" type="curve" smooth="yes"/>
      <point x="230" y="450"/>
      <point x="172" y="478"/>
    </contour>
    <component base="si_Ca"/>
  </outline>
</glyph>
<glyph name="si_ChI" format="1">
  <advance width="598"/>
  <outline>
    <contour>
      <point x="233" y="490" type="curve" smooth="yes"/>
      <point x="233" y="577"/>
      <point x="303" y="657"/>
      <point x="382" y="657" type="curve" smooth="yes"/>
      <point x="429" y="657"/>
      <point x="461" y="626"/>
      <point x="461" y="583" type="curve" smooth="yes"/>
      <point x="461" y="579"/>
      <point x="460" y="576"/>
      <point x="460" y="572" type="curve"/>
      <point x="430" y="544" type="line"/>
      <point x="434" y="550"/>
      <point x="436" y="565"/>
      <point x="436" y="576" type="curve" smooth="yes"/>
      <point x="436" y="604"/>
      <point x="424" y="622"/>
      <point x="393" y="622" type="curve" smooth="yes"/>
      <point x="336" y="622"/>
      <point x="276" y="550"/>
      <point x="276" y="486" type="curve" smooth="yes"/>
      <point x="276" y="454"/>
      <point x="291" y="429"/>
      <point x="332" y="429" type="curve" smooth="yes"/>
      <point x="346" y="429"/>
      <point x="357" y="431"/>
      <point x="374" y="436" type="curve"/>
      <point x="370" y="425" type="line"/>
      <point x="357" y="417"/>
      <point x="329" y="408"/>
      <point x="327" y="407" type="curve"/>
      <point x="326" y="407"/>
      <point x="324" y="407"/>
      <point x="323" y="407" type="curve" smooth="yes"/>
      <point x="260" y="407"/>
      <point x="233" y="439"/>
    </contour>
    <component base="uni0DA1"/>
  </outline>
</glyph>
<glyph name="si_DAae" format="1">
  <advance width="461"/>
  <outline>
    <contour>
      <point x="31" y="169" type="curve" smooth="yes"/>
      <point x="31" y="274"/>
      <point x="104" y="317"/>
      <point x="223" y="317" type="curve" smooth="yes"/>
      <point x="343" y="317" type="line"/>
      <point x="333" y="363"/>
      <point x="304" y="396"/>
      <point x="260" y="396" type="curve" smooth="yes"/>
      <point x="241" y="396"/>
      <point x="225" y="384"/>
      <point x="216" y="366" type="curve" smooth="yes"/>
      <point x="206" y="344"/>
      <point x="190" y="336"/>
      <point x="175" y="336" type="curve" smooth="yes"/>
      <point x="150" y="336"/>
      <point x="137" y="351"/>
      <point x="137" y="372" type="curve" smooth="yes"/>
      <point x="137" y="408"/>
      <point x="177" y="433"/>
      <point x="232" y="433" type="curve" smooth="yes"/>
      <point x="318" y="433"/>
      <point x="361" y="389"/>
      <point x="379" y="294" type="curve"/>
      <point x="242" y="294" type="line" smooth="yes"/>
      <point x="154" y="294"/>
      <point x="108" y="257"/>
      <point x="108" y="173" type="curve" smooth="yes"/>
      <point x="108" y="89"/>
      <point x="175" y="26"/>
      <point x="259" y="26" type="curve" smooth="yes"/>
      <point x="310" y="26"/>
      <point x="344" y="46"/>
      <point x="384" y="92" type="curve"/>
      <point x="403" y="76" type="line"/>
      <point x="403" y="69"/>
      <point x="354" y="28"/>
      <point x="354" y="28" type="curve"/>
      <point x="426" y="28" type="line"/>
      <point x="426" y="5" type="line"/>
      <point x="362" y="-36" type="line"/>
      <point x="424" y="-36" type="line"/>
      <point x="424" y="-58" type="line"/>
      <point x="402" y="-66"/>
      <point x="378" y="-92"/>
      <point x="378" y="-136" type="curve" smooth="yes"/>
      <point x="378" y="-176"/>
      <point x="397" y="-204"/>
      <point x="432" y="-204" type="curve"/>
      <point x="432" y="-228" type="line"/>
      <point x="429" y="-229"/>
      <point x="425" y="-230"/>
      <point x="421" y="-230" type="curve" smooth="yes"/>
      <point x="365" y="-230"/>
      <point x="323" y="-187"/>
      <point x="323" y="-142" type="curve" smooth="yes"/>
      <point x="323" y="-103"/>
      <point x="349" y="-73"/>
      <point x="380" y="-60" type="curve"/>
      <point x="312" y="-60" type="line"/>
      <point x="312" y="-40" type="line"/>
      <point x="335" y="-26"/>
      <point x="359" y="-10"/>
      <point x="383" y="4" type="curve"/>
      <point x="381" y="4"/>
      <point x="314" y="4"/>
      <point x="314" y="4" type="curve"/>
      <point x="295" y="-12"/>
      <point x="245" y="-51"/>
      <point x="245" y="-116" type="curve" smooth="yes"/>
      <point x="245" y="-175"/>
      <point x="280" y="-200"/>
      <point x="315" y="-206" type="curve"/>
      <point x="315" y="-228" type="line"/>
      <point x="311" y="-229"/>
      <point x="301" y="-230"/>
      <point x="296" y="-230" type="curve" smooth="yes"/>
      <point x="234" y="-230"/>
      <point x="186" y="-198"/>
      <point x="186" y="-132" type="curve" smooth="yes"/>
      <point x="186" y="-79"/>
      <point x="225" y="-41"/>
      <point x="272" y="1" type="curve"/>
      <point x="259" y="-1"/>
      <point x="245" y="-1"/>
      <point x="239" y="-1" type="curve" smooth="yes"/>
      <point x="102" y="-1"/>
      <point x="31" y="69"/>
    </contour>
  </outline>
</glyph>
<glyph name="si_DI" format="1">
  <advance width="456"/>
  <outline>
    <contour>
      <point x="35" y="518" type="curve" smooth="yes"/>
      <point x="35" y="619"/>
      <point x="126" y="671"/>
      <point x="223" y="671" type="curve" smooth="yes"/>
      <point x="320" y="671"/>
      <point x="411" y="617"/>
      <point x="411" y="518" type="curve" smooth="yes"/>
      <point x="411" y="443"/>
      <point x="348" y="406"/>
      <point x="295" y="405" type="curve"/>
      <point x="283" y="426" type="line"/>
      <point x="337" y="426"/>
      <point x="381" y="462"/>
      <point x="381" y="509" type="curve" smooth="yes"/>
      <point x="381" y="571"/>
      <point x="295" y="598"/>
      <point x="223" y="598" type="curve" smooth="yes"/>
      <point x="151" y="598"/>
      <point x="66" y="573"/>
      <point x="66" y="509" type="curve" smooth="yes"/>
      <point x="66" y="461"/>
      <point x="109" y="425"/>
      <point x="194" y="425" type="curve"/>
      <point x="151" y="405" type="line"/>
      <point x="85" y="415"/>
      <point x="35" y="451"/>
    </contour>
    <contour>
      <point x="31" y="169" type="curve" smooth="yes"/>
      <point x="31" y="274"/>
      <point x="104" y="317"/>
      <point x="223" y="317" type="curve" smooth="yes"/>
      <point x="343" y="317" type="line"/>
      <point x="333" y="363"/>
      <point x="304" y="396"/>
      <point x="260" y="396" type="curve" smooth="yes"/>
      <point x="241" y="396"/>
      <point x="225" y="384"/>
      <point x="216" y="366" type="curve" smooth="yes"/>
      <point x="206" y="344"/>
      <point x="190" y="336"/>
      <point x="175" y="336" type="curve" smooth="yes"/>
      <point x="150" y="336"/>
      <point x="137" y="351"/>
      <point x="137" y="372" type="curve" smooth="yes"/>
      <point x="137" y="408"/>
      <point x="177" y="433"/>
      <point x="232" y="433" type="curve" smooth="yes"/>
      <point x="318" y="433"/>
      <point x="361" y="389"/>
      <point x="379" y="294" type="curve"/>
      <point x="242" y="294" type="line" smooth="yes"/>
      <point x="154" y="294"/>
      <point x="108" y="257"/>
      <point x="108" y="173" type="curve" smooth="yes"/>
      <point x="108" y="89"/>
      <point x="178" y="27"/>
      <point x="261" y="27" type="curve" smooth="yes"/>
      <point x="307" y="27"/>
      <point x="344" y="46"/>
      <point x="384" y="92" type="curve"/>
      <point x="407" y="75" type="line"/>
      <point x="376" y="39"/>
      <point x="306" y="-28"/>
      <point x="306" y="-104" type="curve" smooth="yes"/>
      <point x="306" y="-170"/>
      <point x="345" y="-195"/>
      <point x="409" y="-210" type="curve"/>
      <point x="409" y="-238" type="line"/>
      <point x="395" y="-241"/>
      <point x="377" y="-242"/>
      <point x="355" y="-242" type="curve" smooth="yes"/>
      <point x="284" y="-240"/>
      <point x="249" y="-199"/>
      <point x="249" y="-142" type="curve" smooth="yes"/>
      <point x="249" y="-103"/>
      <point x="272" y="-53"/>
      <point x="319" y="10" type="curve"/>
      <point x="284" y="0"/>
      <point x="261" y="-1"/>
      <point x="234" y="-1" type="curve" smooth="yes"/>
      <point x="103" y="-1"/>
      <point x="31" y="69"/>
    </contour>
  </outline>
</glyph>
<glyph name="si_DYOo.post" format="1">
  <advance width="895"/>
  <outline>
    <contour>
      <point x="731" y="-53" type="line"/>
      <point x="731" y="680" type="line"/>
      <point x="785" y="638"/>
      <point x="881" y="633"/>
      <point x="881" y="541" type="curve" smooth="yes"/>
      <point x="881" y="497"/>
      <point x="846" y="467"/>
      <point x="803" y="467" type="curve" smooth="yes"/>
      <point x="788" y="467"/>
      <point x="773" y="470"/>
      <point x="758" y="477" type="curve"/>
      <point x="758" y="-101" type="line"/>
    </contour>
    <contour>
      <point x="758" y="637" type="curve"/>
      <point x="758" y="502" type="line"/>
      <point x="767" y="497"/>
      <point x="778" y="495"/>
      <point x="791" y="495" type="curve" smooth="yes"/>
      <point x="829" y="495"/>
      <point x="844" y="520"/>
      <point x="844" y="544" type="curve" smooth="yes"/>
      <point x="844" y="586"/>
      <point x="805" y="606"/>
    </contour>
    <contour>
      <point x="592" y="-31" type="line"/>
      <point x="592" y="7"/>
      <point x="616" y="48"/>
      <point x="674" y="48" type="curve" smooth="yes"/>
      <point x="728" y="48"/>
      <point x="762" y="-4"/>
      <point x="762" y="-73" type="curve" smooth="yes"/>
      <point x="762" y="-161"/>
      <point x="722" y="-198"/>
      <point x="663" y="-198" type="curve" smooth="yes"/>
      <point x="614" y="-198"/>
      <point x="598" y="-173"/>
      <point x="598" y="-152" type="curve"/>
      <point x="624" y="-152" type="line"/>
      <point x="625" y="-162"/>
      <point x="634" y="-173"/>
      <point x="653" y="-173" type="curve" smooth="yes"/>
      <point x="695" y="-173"/>
      <point x="706" y="-134"/>
      <point x="706" y="-73" type="curve" smooth="yes"/>
      <point x="706" y="-28"/>
      <point x="691" y="19"/>
      <point x="660" y="19" type="curve" smooth="yes"/>
      <point x="631" y="19"/>
      <point x="619" y="-7"/>
      <point x="619" y="-31" type="curve"/>
    </contour>
    <contour>
      <point x="340" y="46" type="line"/>
      <point x="349" y="48"/>
      <point x="354" y="50"/>
      <point x="364" y="50" type="curve" smooth="yes"/>
      <point x="389" y="50"/>
      <point x="424" y="11"/>
      <point x="424" y="-42" type="curve" smooth="yes"/>
      <point x="424" y="-77"/>
      <point x="416" y="-103"/>
      <point x="400" y="-134" type="curve"/>
      <point x="423" y="-149"/>
      <point x="454" y="-153"/>
      <point x="476" y="-153" type="curve" smooth="yes"/>
      <point x="514" y="-153"/>
      <point x="558" y="-136"/>
      <point x="558" y="-94" type="curve" smooth="yes"/>
      <point x="558" y="-57"/>
      <point x="527" y="-43"/>
      <point x="490" y="-43" type="curve" smooth="yes"/>
      <point x="471" y="-43"/>
      <point x="444" y="-35"/>
      <point x="444" y="4" type="curve" smooth="yes"/>
      <point x="444" y="34"/>
      <point x="472" y="54"/>
      <point x="508" y="54" type="curve" smooth="yes"/>
      <point x="544" y="54"/>
      <point x="571" y="35"/>
      <point x="571" y="-1" type="curve" smooth="yes"/>
      <point x="571" y="-5"/>
      <point x="571" y="-9"/>
      <point x="570" y="-13" type="curve"/>
      <point x="544" y="-13" type="line"/>
      <point x="545" y="-9"/>
      <point x="546" y="-6"/>
      <point x="546" y="-2" type="curve" smooth="yes"/>
      <point x="546" y="19"/>
      <point x="534" y="32"/>
      <point x="508" y="32" type="curve" smooth="yes"/>
      <point x="486" y="32"/>
      <point x="470" y="21"/>
      <point x="470" y="4" type="curve" smooth="yes"/>
      <point x="470" y="-18"/>
      <point x="485" y="-22"/>
      <point x="508" y="-22" type="curve" smooth="yes"/>
      <point x="543" y="-22"/>
      <point x="593" y="-46"/>
      <point x="593" y="-107" type="curve" smooth="yes"/>
      <point x="593" y="-166"/>
      <point x="540" y="-205"/>
      <point x="488" y="-205" type="curve" smooth="yes"/>
      <point x="441" y="-205"/>
      <point x="412" y="-193"/>
      <point x="383" y="-156" type="curve"/>
      <point x="364" y="-177"/>
      <point x="338" y="-196"/>
      <point x="312" y="-205" type="curve"/>
      <point x="297" y="-184" type="line"/>
      <point x="352" y="-161"/>
      <point x="398" y="-120"/>
      <point x="398" y="-44" type="curve" smooth="yes"/>
      <point x="398" y="-2"/>
      <point x="374" y="30"/>
      <point x="350" y="30" type="curve" smooth="yes"/>
      <point x="341" y="30"/>
      <point x="335" y="29"/>
      <point x="328" y="28" type="curve"/>
    </contour>
    <contour>
      <point x="234" y="-1" type="curve" smooth="yes"/>
      <point x="103" y="-1"/>
      <point x="31" y="69"/>
      <point x="31" y="169" type="curve" smooth="yes"/>
      <point x="31" y="274"/>
      <point x="104" y="317"/>
      <point x="223" y="317" type="curve" smooth="yes"/>
      <point x="343" y="317" type="line"/>
      <point x="333" y="363"/>
      <point x="304" y="396"/>
      <point x="260" y="396" type="curve" smooth="yes"/>
      <point x="241" y="396"/>
      <point x="225" y="384"/>
      <point x="216" y="366" type="curve" smooth="yes"/>
      <point x="206" y="344"/>
      <point x="190" y="336"/>
      <point x="175" y="336" type="curve" smooth="yes"/>
      <point x="150" y="336"/>
      <point x="137" y="351"/>
      <point x="137" y="372" type="curve" smooth="yes"/>
      <point x="137" y="408"/>
      <point x="177" y="433"/>
      <point x="232" y="433" type="curve" smooth="yes"/>
      <point x="318" y="433"/>
      <point x="361" y="389"/>
      <point x="379" y="294" type="curve"/>
      <point x="242" y="294" type="line" smooth="yes"/>
      <point x="154" y="294"/>
      <point x="108" y="257"/>
      <point x="108" y="173" type="curve" smooth="yes"/>
      <point x="108" y="89"/>
      <point x="173" y="26"/>
      <point x="258" y="26" type="curve" smooth="yes"/>
      <point x="308" y="26"/>
      <point x="350" y="46"/>
      <point x="390" y="92" type="curve"/>
      <point x="412" y="75" type="line"/>
      <point x="373" y="42"/>
      <point x="345" y="-1"/>
    </contour>
  </outline>
</glyph>
<glyph name="si_D.halant" format="1">
  <advance width="456"/>
  <outline>
    <contour>
      <point x="264" y="413" type="line"/>
      <point x="264" y="680" type="line"/>
      <point x="318" y="638"/>
      <point x="414" y="633"/>
      <point x="414" y="541" type="curve" smooth="yes"/>
      <point x="414" y="497"/>
      <point x="380" y="467"/>
      <point x="336" y="467" type="curve" smooth="yes"/>
      <point x="322" y="467"/>
      <point x="307" y="470"/>
      <point x="292" y="477" type="curve"/>
      <point x="292" y="396" type="line"/>
    </contour>
    <contour>
      <point x="292" y="502" type="line"/>
      <point x="300" y="497"/>
      <point x="311" y="495"/>
      <point x="324" y="495" type="curve" smooth="yes"/>
      <point x="362" y="495"/>
      <point x="378" y="520"/>
      <point x="378" y="544" type="curve" smooth="yes"/>
      <point x="378" y="586"/>
      <point x="338" y="606"/>
      <point x="292" y="637" type="curve"/>
    </contour>
    <component base="si_Da"/>
  </outline>
</glyph>
<glyph name="si_DdU" format="1">
  <advance width="647"/>
  <outline>
    <contour>
      <point x="52" y="-142" type="curve" smooth="yes"/>
      <point x="52" y="-90"/>
      <point x="98" y="-50"/>
      <point x="153" y="-50" type="curve" smooth="yes"/>
      <point x="195" y="-50"/>
      <point x="232" y="-74"/>
      <point x="247" y="-110" type="curve"/>
      <point x="217" y="-122" type="line"/>
      <point x="210" y="-102"/>
      <point x="186" y="-80"/>
      <point x="153" y="-80" type="curve" smooth="yes"/>
      <point x="116" y="-80"/>
      <point x="85" y="-107"/>
      <point x="85" y="-142" type="curve" smooth="yes"/>
      <point x="85" y="-172"/>
      <point x="108" y="-199"/>
      <point x="174" y="-199" type="curve" smooth="yes"/>
      <point x="552" y="-199" type="line"/>
      <point x="552" y="128" type="line"/>
      <point x="585" y="219" type="line"/>
      <point x="585" y="-235" type="line"/>
      <point x="157" y="-235" type="line" smooth="yes"/>
      <point x="88" y="-235"/>
      <point x="52" y="-186"/>
    </contour>
  </outline>
</glyph>
<glyph name="si_FUu" format="1">
  <advance width="607"/>
  <outline>
    <contour>
      <point x="53" y="-138" type="curve" smooth="yes"/>
      <point x="53" y="-80"/>
      <point x="102" y="-40"/>
      <point x="155" y="-40" type="curve" smooth="yes"/>
      <point x="197" y="-40"/>
      <point x="229" y="-55"/>
      <point x="252" y="-91" type="curve"/>
      <point x="222" y="-102" type="line"/>
      <point x="210" y="-83"/>
      <point x="189" y="-68"/>
      <point x="160" y="-68" type="curve" smooth="yes"/>
      <point x="121" y="-68"/>
      <point x="89" y="-92"/>
      <point x="89" y="-129" type="curve" smooth="yes"/>
      <point x="89" y="-166"/>
      <point x="120" y="-191"/>
      <point x="163" y="-191" type="curve" smooth="yes"/>
      <point x="247" y="-191"/>
      <point x="312" y="-117"/>
      <point x="406" y="-117" type="curve" smooth="yes"/>
      <point x="454" y="-117"/>
      <point x="488" y="-132"/>
      <point x="513" y="-162" type="curve"/>
      <point x="513" y="99" type="line"/>
      <point x="546" y="201" type="line"/>
      <point x="546" y="-231" type="line"/>
      <point x="523" y="-231" type="line"/>
      <point x="508" y="-195"/>
      <point x="474" y="-144"/>
      <point x="410" y="-144" type="curve" smooth="yes"/>
      <point x="318" y="-144"/>
      <point x="262" y="-237"/>
      <point x="164" y="-237" type="curve" smooth="yes"/>
      <point x="109" y="-237"/>
      <point x="53" y="-206"/>
    </contour>
    <component base="si_Fa"/>
  </outline>
</glyph>
<glyph name="si_GUu" format="1">
  <advance width="636"/>
  <outline>
    <contour>
      <point x="336" y="-129" type="curve" smooth="yes"/>
      <point x="336" y="-93"/>
      <point x="368" y="-72"/>
      <point x="400" y="-67" type="curve"/>
      <point x="345" y="-39" type="line"/>
      <point x="432" y="-14" type="line"/>
      <point x="338" y="1" type="line"/>
      <point x="387" y="13" type="line"/>
      <point x="506" y="-7" type="line"/>
      <point x="402" y="-44" type="line"/>
      <point x="461" y="-76" type="line"/>
      <point x="433" y="-83"/>
      <point x="376" y="-86"/>
      <point x="376" y="-115" type="curve" smooth="yes"/>
      <point x="376" y="-146"/>
      <point x="418" y="-155"/>
      <point x="460" y="-155" type="curve" smooth="yes"/>
      <point x="514" y="-155"/>
      <point x="560" y="-131"/>
      <point x="560" y="-82" type="curve" smooth="yes"/>
      <point x="560" y="-77"/>
      <point x="559" y="-69"/>
      <point x="554" y="-59" type="curve"/>
      <point x="587" y="-59" type="line"/>
      <point x="591" y="-71"/>
      <point x="591" y="-83"/>
      <point x="591" y="-94" type="curve" smooth="yes"/>
      <point x="591" y="-161"/>
      <point x="540" y="-205"/>
      <point x="458" y="-205" type="curve" smooth="yes"/>
      <point x="400" y="-205"/>
      <point x="336" y="-187"/>
    </contour>
    <component base="si_Ga"/>
  </outline>
</glyph>
<glyph name="si_JRI" format="1">
  <advance width="598"/>
  <outline>
    <contour>
      <point x="40" y="-44" type="curve"/>
      <point x="68" y="-44" type="line"/>
      <point x="103" y="-119"/>
      <point x="168" y="-157"/>
      <point x="273" y="-157" type="curve" smooth="yes"/>
      <point x="416" y="-157"/>
      <point x="523" y="-90"/>
      <point x="523" y="50" type="curve" smooth="yes"/>
      <point x="523" y="71"/>
      <point x="517" y="99"/>
      <point x="504" y="112" type="curve"/>
      <point x="520" y="140" type="line"/>
      <point x="542" y="107"/>
      <point x="551" y="75"/>
      <point x="551" y="38" type="curve" smooth="yes"/>
      <point x="551" y="-124"/>
      <point x="433" y="-219"/>
      <point x="289" y="-219" type="curve" smooth="yes"/>
      <point x="156" y="-219"/>
      <point x="78" y="-153"/>
    </contour>
    <contour>
      <point x="233" y="490" type="curve" smooth="yes"/>
      <point x="233" y="577"/>
      <point x="303" y="657"/>
      <point x="382" y="657" type="curve" smooth="yes"/>
      <point x="429" y="657"/>
      <point x="461" y="626"/>
      <point x="461" y="583" type="curve" smooth="yes"/>
      <point x="461" y="579"/>
      <point x="460" y="576"/>
      <point x="460" y="572" type="curve"/>
      <point x="430" y="544" type="line"/>
      <point x="434" y="550"/>
      <point x="436" y="565"/>
      <point x="436" y="576" type="curve" smooth="yes"/>
      <point x="436" y="604"/>
      <point x="424" y="622"/>
      <point x="393" y="622" type="curve" smooth="yes"/>
      <point x="336" y="622"/>
      <point x="276" y="550"/>
      <point x="276" y="486" type="curve" smooth="yes"/>
      <point x="276" y="454"/>
      <point x="291" y="429"/>
      <point x="332" y="429" type="curve" smooth="yes"/>
      <point x="346" y="429"/>
      <point x="357" y="431"/>
      <point x="374" y="436" type="curve"/>
      <point x="370" y="425" type="line"/>
      <point x="357" y="417"/>
      <point x="329" y="408"/>
      <point x="327" y="407" type="curve"/>
      <point x="326" y="407"/>
      <point x="324" y="407"/>
      <point x="323" y="407" type="curve" smooth="yes"/>
      <point x="260" y="407"/>
      <point x="233" y="439"/>
    </contour>
    <component base="uni0DA2"/>
  </outline>
</glyph>
<glyph name="si_JRIi" format="1">
  <advance width="598"/>
  <outline>
    <contour>
      <point x="40" y="-44" type="curve"/>
      <point x="68" y="-44" type="line"/>
      <point x="103" y="-119"/>
      <point x="168" y="-157"/>
      <point x="273" y="-157" type="curve" smooth="yes"/>
      <point x="416" y="-157"/>
      <point x="523" y="-90"/>
      <point x="523" y="50" type="curve" smooth="yes"/>
      <point x="523" y="71"/>
      <point x="517" y="99"/>
      <point x="504" y="112" type="curve"/>
      <point x="520" y="140" type="line"/>
      <point x="542" y="107"/>
      <point x="551" y="75"/>
      <point x="551" y="38" type="curve" smooth="yes"/>
      <point x="551" y="-124"/>
      <point x="433" y="-219"/>
      <point x="289" y="-219" type="curve" smooth="yes"/>
      <point x="156" y="-219"/>
      <point x="78" y="-153"/>
    </contour>
    <contour>
      <point x="338" y="579" type="curve" smooth="yes"/>
      <point x="338" y="552"/>
      <point x="359" y="530"/>
      <point x="386" y="530" type="curve" smooth="yes"/>
      <point x="414" y="530"/>
      <point x="435" y="552"/>
      <point x="435" y="579" type="curve" smooth="yes"/>
      <point x="435" y="606"/>
      <point x="414" y="628"/>
      <point x="386" y="628" type="curve" smooth="yes"/>
      <point x="359" y="628"/>
      <point x="338" y="606"/>
    </contour>
    <contour>
      <point x="233" y="490" type="curve" smooth="yes"/>
      <point x="233" y="577"/>
      <point x="303" y="656"/>
      <point x="387" y="656" type="curve" smooth="yes"/>
      <point x="432" y="656"/>
      <point x="464" y="619"/>
      <point x="464" y="579" type="curve" smooth="yes"/>
      <point x="464" y="541"/>
      <point x="434" y="502"/>
      <point x="387" y="502" type="curve" smooth="yes"/>
      <point x="339" y="502"/>
      <point x="312" y="540"/>
      <point x="312" y="574" type="curve" smooth="yes"/>
      <point x="312" y="575"/>
      <point x="312" y="576"/>
      <point x="312" y="577" type="curve"/>
      <point x="293" y="552"/>
      <point x="276" y="520"/>
      <point x="276" y="486" type="curve" smooth="yes"/>
      <point x="276" y="454"/>
      <point x="291" y="429"/>
      <point x="332" y="429" type="curve" smooth="yes"/>
      <point x="346" y="429"/>
      <point x="357" y="431"/>
      <point x="374" y="436" type="curve"/>
      <point x="370" y="425" type="line"/>
      <point x="327" y="407" type="line"/>
      <point x="326" y="407"/>
      <point x="324" y="407"/>
      <point x="323" y="407" type="curve" smooth="yes"/>
      <point x="260" y="407"/>
      <point x="233" y="439"/>
    </contour>
    <component base="si_Ja"/>
  </outline>
</glyph>
<glyph name="si_JU" format="1">
  <advance width="598"/>
  <outline>
    <contour>
      <point x="39" y="-142" type="curve" smooth="yes"/>
      <point x="39" y="-90"/>
      <point x="85" y="-50"/>
      <point x="140" y="-50" type="curve" smooth="yes"/>
      <point x="182" y="-50"/>
      <point x="220" y="-74"/>
      <point x="234" y="-110" type="curve"/>
      <point x="204" y="-122" type="line"/>
      <point x="197" y="-102"/>
      <point x="173" y="-80"/>
      <point x="140" y="-80" type="curve" smooth="yes"/>
      <point x="104" y="-80"/>
      <point x="72" y="-107"/>
      <point x="72" y="-142" type="curve" smooth="yes"/>
      <point x="72" y="-172"/>
      <point x="96" y="-199"/>
      <point x="161" y="-199" type="curve" smooth="yes"/>
      <point x="508" y="-199" type="line"/>
      <point x="508" y="128" type="line"/>
      <point x="540" y="198" type="line"/>
      <point x="540" y="-235" type="line"/>
      <point x="144" y="-235" type="line" smooth="yes"/>
      <point x="75" y="-235"/>
      <point x="39" y="-186"/>
    </contour>
    <component base="si_Ja"/>
  </outline>
</glyph>
<glyph name="si_Ja.reph" format="1">
  <advance width="598"/>
  <outline>
    <contour>
      <point x="202" y="491" type="curve" smooth="yes"/>
      <point x="202" y="470"/>
      <point x="221" y="454"/>
      <point x="243" y="454" type="curve" smooth="yes"/>
      <point x="266" y="454"/>
      <point x="284" y="470"/>
      <point x="284" y="491" type="curve" smooth="yes"/>
      <point x="284" y="512"/>
      <point x="266" y="528"/>
      <point x="243" y="528" type="curve" smooth="yes"/>
      <point x="221" y="528"/>
      <point x="202" y="512"/>
    </contour>
    <contour>
      <point x="100" y="510" type="curve" smooth="yes"/>
      <point x="100" y="574"/>
      <point x="158" y="611"/>
      <point x="240" y="611" type="curve" smooth="yes"/>
      <point x="317" y="611"/>
      <point x="381" y="568"/>
      <point x="381" y="497" type="curve" smooth="yes"/>
      <point x="381" y="473"/>
      <point x="373" y="451"/>
      <point x="356" y="432" type="curve"/>
      <point x="322" y="432" type="line"/>
      <point x="336" y="444"/>
      <point x="351" y="469"/>
      <point x="351" y="496" type="curve" smooth="yes"/>
      <point x="351" y="553"/>
      <point x="300" y="584"/>
      <point x="239" y="584" type="curve" smooth="yes"/>
      <point x="186" y="584"/>
      <point x="132" y="563"/>
      <point x="132" y="510" type="curve" smooth="yes"/>
      <point x="132" y="471"/>
      <point x="173" y="452"/>
      <point x="196" y="450" type="curve"/>
      <point x="188" y="456"/>
      <point x="175" y="471"/>
      <point x="175" y="492" type="curve" smooth="yes"/>
      <point x="175" y="527"/>
      <point x="207" y="552"/>
      <point x="242" y="552" type="curve" smooth="yes"/>
      <point x="283" y="552"/>
      <point x="311" y="525"/>
      <point x="311" y="490" type="curve" smooth="yes"/>
      <point x="311" y="451"/>
      <point x="276" y="425"/>
      <point x="218" y="425" type="curve" smooth="yes"/>
      <point x="159" y="425"/>
      <point x="100" y="454"/>
    </contour>
    <component base="si_Ja"/>
  </outline>
</glyph>
<glyph name="si_Jha.reph" format="1">
  <advance width="1087"/>
  <outline>
    <contour>
      <point x="724" y="622" type="curve" smooth="yes"/>
      <point x="724" y="602"/>
      <point x="742" y="585"/>
      <point x="764" y="585" type="curve" smooth="yes"/>
      <point x="787" y="585"/>
      <point x="805" y="602"/>
      <point x="805" y="622" type="curve" smooth="yes"/>
      <point x="805" y="643"/>
      <point x="787" y="660"/>
      <point x="764" y="660" type="curve" smooth="yes"/>
      <point x="742" y="660"/>
      <point x="724" y="643"/>
    </contour>
    <contour>
      <point x="622" y="641" type="curve" smooth="yes"/>
      <point x="622" y="705"/>
      <point x="680" y="742"/>
      <point x="762" y="742" type="curve" smooth="yes"/>
      <point x="838" y="742"/>
      <point x="902" y="699"/>
      <point x="902" y="628" type="curve" smooth="yes"/>
      <point x="902" y="604"/>
      <point x="894" y="583"/>
      <point x="878" y="563" type="curve"/>
      <point x="844" y="563" type="line"/>
      <point x="857" y="576"/>
      <point x="872" y="600"/>
      <point x="872" y="627" type="curve" smooth="yes"/>
      <point x="872" y="685"/>
      <point x="822" y="715"/>
      <point x="760" y="715" type="curve" smooth="yes"/>
      <point x="708" y="715"/>
      <point x="653" y="694"/>
      <point x="653" y="641" type="curve" smooth="yes"/>
      <point x="653" y="602"/>
      <point x="694" y="584"/>
      <point x="717" y="582" type="curve"/>
      <point x="709" y="588"/>
      <point x="696" y="602"/>
      <point x="696" y="623" type="curve" smooth="yes"/>
      <point x="696" y="658"/>
      <point x="728" y="683"/>
      <point x="764" y="683" type="curve" smooth="yes"/>
      <point x="804" y="683"/>
      <point x="832" y="656"/>
      <point x="832" y="621" type="curve" smooth="yes"/>
      <point x="832" y="582"/>
      <point x="798" y="556"/>
      <point x="740" y="556" type="curve" smooth="yes"/>
      <point x="680" y="556"/>
      <point x="622" y="585"/>
    </contour>
    <component base="uni0DA3"/>
  </outline>
</glyph>
<glyph name="si_KSsU" format="1">
  <advance width="1069"/>
  <outline>
    <contour>
      <point x="492" y="-142" type="curve" smooth="yes"/>
      <point x="492" y="-90"/>
      <point x="539" y="-50"/>
      <point x="594" y="-50" type="curve" smooth="yes"/>
      <point x="636" y="-50"/>
      <point x="673" y="-74"/>
      <point x="688" y="-110" type="curve"/>
      <point x="658" y="-122" type="line"/>
      <point x="651" y="-102"/>
      <point x="627" y="-80"/>
      <point x="594" y="-80" type="curve" smooth="yes"/>
      <point x="557" y="-80"/>
      <point x="526" y="-107"/>
      <point x="526" y="-142" type="curve" smooth="yes"/>
      <point x="526" y="-172"/>
      <point x="549" y="-199"/>
      <point x="615" y="-199" type="curve" smooth="yes"/>
      <point x="982" y="-199" type="line"/>
      <point x="982" y="128" type="line"/>
      <point x="1015" y="198" type="line"/>
      <point x="1015" y="-235" type="line"/>
      <point x="598" y="-235" type="line" smooth="yes"/>
      <point x="529" y="-235"/>
      <point x="492" y="-186"/>
    </contour>
  </outline>
</glyph>
<glyph name="si_KU" format="1">
  <advance width="746"/>
  <outline>
    <contour>
      <point x="444" y="-80" type="curve" smooth="yes"/>
      <point x="444" y="-30"/>
      <point x="474" y="9"/>
      <point x="517" y="21" type="curve"/>
      <point x="523" y="-6" type="line"/>
      <point x="501" y="-14"/>
      <point x="482" y="-34"/>
      <point x="482" y="-63" type="curve" smooth="yes"/>
      <point x="482" y="-108"/>
      <point x="532" y="-132"/>
      <point x="584" y="-132" type="curve" smooth="yes"/>
      <point x="644" y="-132"/>
      <point x="692" y="-94"/>
      <point x="692" y="-45" type="curve" smooth="yes"/>
      <point x="692" y="-42"/>
      <point x="691" y="-39"/>
      <point x="691" y="-36" type="curve"/>
      <point x="721" y="-36" type="line"/>
      <point x="723" y="-45"/>
      <point x="723" y="-60"/>
      <point x="723" y="-70" type="curve" smooth="yes"/>
      <point x="723" y="-122"/>
      <point x="680" y="-192"/>
      <point x="579" y="-192" type="curve" smooth="yes"/>
      <point x="516" y="-192"/>
      <point x="444" y="-149"/>
    </contour>
    <contour>
      <point x="21" y="22" type="curve"/>
      <point x="47" y="11" type="line"/>
      <point x="50" y="51"/>
      <point x="65" y="73"/>
      <point x="87" y="73" type="curve" smooth="yes"/>
      <point x="120" y="73"/>
      <point x="117" y="-1"/>
      <point x="204" y="-1" type="curve" smooth="yes"/>
      <point x="246" y="-1"/>
      <point x="279" y="22"/>
      <point x="296" y="63" type="curve"/>
      <point x="317" y="20"/>
      <point x="351" y="-1"/>
      <point x="397" y="-1" type="curve" smooth="yes"/>
      <point x="482" y="-1"/>
      <point x="515" y="68"/>
      <point x="515" y="126" type="curve" smooth="yes"/>
      <point x="515" y="251"/>
      <point x="422" y="316"/>
      <point x="302" y="316" type="curve" smooth="yes"/>
      <point x="275" y="316"/>
      <point x="243" y="314"/>
      <point x="219" y="308" type="curve"/>
      <point x="266" y="348"/>
      <point x="327" y="368"/>
      <point x="400" y="368" type="curve" smooth="yes"/>
      <point x="534" y="368"/>
      <point x="649" y="285"/>
      <point x="649" y="153" type="curve" smooth="yes"/>
      <point x="649" y="74"/>
      <point x="607" y="27"/>
      <point x="556" y="27" type="curve" smooth="yes"/>
      <point x="545" y="27"/>
      <point x="521" y="24"/>
      <point x="512" y="19" type="curve"/>
      <point x="520" y="-7" type="line"/>
      <point x="530" y="-3"/>
      <point x="547" y="0"/>
      <point x="565" y="0" type="curve" smooth="yes"/>
      <point x="656" y="0"/>
      <point x="701" y="112"/>
      <point x="701" y="192" type="curve" smooth="yes"/>
      <point x="701" y="328"/>
      <point x="603" y="434"/>
      <point x="453" y="434" type="curve" smooth="yes"/>
      <point x="366" y="434"/>
      <point x="281" y="401"/>
      <point x="219" y="341" type="curve"/>
      <point x="220" y="346"/>
      <point x="220" y="351"/>
      <point x="220" y="356" type="curve" smooth="yes"/>
      <point x="220" y="402"/>
      <point x="186" y="433"/>
      <point x="136" y="433" type="curve" smooth="yes"/>
      <point x="79" y="433"/>
      <point x="29" y="394"/>
      <point x="29" y="340" type="curve" smooth="yes"/>
      <point x="29" y="328"/>
      <point x="35" y="297"/>
      <point x="69" y="297" type="curve" smooth="yes"/>
      <point x="84" y="297"/>
      <point x="99" y="305"/>
      <point x="106" y="323" type="curve" smooth="yes"/>
      <point x="113" y="340"/>
      <point x="109" y="340"/>
      <point x="116" y="363" type="curve" smooth="yes"/>
      <point x="122" y="384"/>
      <point x="144" y="392"/>
      <point x="158" y="392" type="curve" smooth="yes"/>
      <point x="183" y="392"/>
      <point x="193" y="374"/>
      <point x="193" y="352" type="curve" smooth="yes"/>
      <point x="193" y="330"/>
      <point x="180" y="314"/>
      <point x="168" y="301" type="curve"/>
      <point x="150" y="282"/>
      <point x="135" y="268"/>
      <point x="109" y="232" type="curve" smooth="yes"/>
      <point x="74" y="184"/>
      <point x="29" y="91"/>
    </contour>
    <contour>
      <point x="70" y="95" type="curve"/>
      <point x="81" y="132"/>
      <point x="100" y="171"/>
      <point x="129" y="212" type="curve" smooth="yes"/>
      <point x="145" y="235"/>
      <point x="165" y="258"/>
      <point x="182" y="273" type="curve"/>
      <point x="203" y="282"/>
      <point x="241" y="291"/>
      <point x="298" y="291" type="curve" smooth="yes"/>
      <point x="401" y="291"/>
      <point x="474" y="242"/>
      <point x="474" y="159" type="curve" smooth="yes"/>
      <point x="474" y="123"/>
      <point x="454" y="71"/>
      <point x="392" y="71" type="curve" smooth="yes"/>
      <point x="334" y="71"/>
      <point x="307" y="97"/>
      <point x="307" y="162" type="curve" smooth="yes"/>
      <point x="307" y="163"/>
      <point x="307" y="162"/>
      <point x="307" y="163" type="curve"/>
      <point x="281" y="163" type="line"/>
      <point x="281" y="161"/>
      <point x="281" y="164"/>
      <point x="281" y="162" type="curve" smooth="yes"/>
      <point x="281" y="102"/>
      <point x="250" y="71"/>
      <point x="199" y="71" type="curve" smooth="yes"/>
      <point x="142" y="71"/>
      <point x="118" y="100"/>
      <point x="89" y="100" type="curve" smooth="yes"/>
      <point x="82" y="100"/>
      <point x="76" y="98"/>
    </contour>
  </outline>
</glyph>
<glyph name="si_KVUu" format="1">
  <advance width="1061"/>
  <outline>
    <contour>
      <point x="511" y="-138" type="curve" smooth="yes"/>
      <point x="511" y="-80"/>
      <point x="560" y="-40"/>
      <point x="613" y="-40" type="curve" smooth="yes"/>
      <point x="655" y="-40"/>
      <point x="687" y="-55"/>
      <point x="710" y="-91" type="curve"/>
      <point x="680" y="-102" type="line"/>
      <point x="668" y="-83"/>
      <point x="647" y="-68"/>
      <point x="618" y="-68" type="curve" smooth="yes"/>
      <point x="579" y="-68"/>
      <point x="547" y="-92"/>
      <point x="547" y="-129" type="curve" smooth="yes"/>
      <point x="547" y="-166"/>
      <point x="578" y="-191"/>
      <point x="621" y="-191" type="curve" smooth="yes"/>
      <point x="705" y="-191"/>
      <point x="772" y="-117"/>
      <point x="866" y="-117" type="curve" smooth="yes"/>
      <point x="914" y="-117"/>
      <point x="946" y="-134"/>
      <point x="970" y="-160" type="curve"/>
      <point x="970" y="152" type="line"/>
      <point x="1003" y="212" type="line"/>
      <point x="1003" y="-231" type="line"/>
      <point x="980" y="-231" type="line"/>
      <point x="965" y="-195"/>
      <point x="934" y="-144"/>
      <point x="870" y="-144" type="curve" smooth="yes"/>
      <point x="778" y="-144"/>
      <point x="720" y="-237"/>
      <point x="622" y="-237" type="curve" smooth="yes"/>
      <point x="567" y="-237"/>
      <point x="511" y="-206"/>
    </contour>
  </outline>
</glyph>
<glyph name="si_M.halant" format="1">
  <advance width="635"/>
  <outline>
    <contour>
      <point x="142" y="543" type="curve" smooth="yes"/>
      <point x="142" y="567"/>
      <point x="215" y="590"/>
      <point x="287" y="590" type="curve" smooth="yes"/>
      <point x="403" y="590"/>
      <point x="497" y="537"/>
      <point x="530" y="422" type="curve"/>
      <point x="472" y="490"/>
      <point x="390" y="519"/>
      <point x="282" y="519" type="curve" smooth="yes"/>
      <point x="236" y="519"/>
      <point x="196" y="514"/>
      <point x="163" y="508" type="curve"/>
      <point x="165" y="510"/>
      <point x="166" y="513"/>
      <point x="166" y="515" type="curve" smooth="yes"/>
      <point x="166" y="526"/>
      <point x="142" y="531"/>
    </contour>
    <contour>
      <point x="45" y="442" type="line"/>
      <point x="126" y="480"/>
      <point x="203" y="494"/>
      <point x="279" y="494" type="curve" smooth="yes"/>
      <point x="448" y="494"/>
      <point x="547" y="409"/>
      <point x="547" y="283" type="curve" smooth="yes"/>
      <point x="547" y="272"/>
      <point x="547" y="277"/>
      <point x="546" y="274" type="curve"/>
      <point x="585" y="267" type="line"/>
      <point x="585" y="306"/>
      <point x="578" y="338"/>
      <point x="572" y="356" type="curve"/>
      <point x="560" y="490"/>
      <point x="489" y="629"/>
      <point x="281" y="629" type="curve" smooth="yes"/>
      <point x="166" y="629"/>
      <point x="101" y="583"/>
      <point x="101" y="546" type="curve" smooth="yes"/>
      <point x="101" y="524"/>
      <point x="129" y="520"/>
      <point x="129" y="508" type="curve" smooth="yes"/>
      <point x="129" y="499"/>
      <point x="77" y="485"/>
      <point x="45" y="473" type="curve"/>
    </contour>
    <contour>
      <point x="264" y="352" type="curve" smooth="yes"/>
      <point x="264" y="325"/>
      <point x="286" y="303"/>
      <point x="313" y="303" type="curve" smooth="yes"/>
      <point x="340" y="303"/>
      <point x="362" y="325"/>
      <point x="362" y="352" type="curve" smooth="yes"/>
      <point x="362" y="379"/>
      <point x="340" y="401"/>
      <point x="313" y="401" type="curve" smooth="yes"/>
      <point x="286" y="401"/>
      <point x="264" y="379"/>
    </contour>
    <contour>
      <point x="33" y="250" type="curve" smooth="yes"/>
      <point x="33" y="339"/>
      <point x="79" y="432"/>
      <point x="156" y="432" type="curve" smooth="yes"/>
      <point x="205" y="432"/>
      <point x="209" y="398"/>
      <point x="209" y="373" type="curve" smooth="yes"/>
      <point x="209" y="346"/>
      <point x="204" y="338"/>
      <point x="204" y="302" type="curve" smooth="yes"/>
      <point x="204" y="247"/>
      <point x="245" y="218"/>
      <point x="300" y="218" type="curve" smooth="yes"/>
      <point x="360" y="218"/>
      <point x="401" y="255"/>
      <point x="401" y="314" type="curve" smooth="yes"/>
      <point x="401" y="342"/>
      <point x="392" y="359"/>
      <point x="387" y="366" type="curve"/>
      <point x="389" y="356"/>
      <point x="389" y="351"/>
      <point x="389" y="343" type="curve" smooth="yes"/>
      <point x="389" y="306"/>
      <point x="361" y="271"/>
      <point x="313" y="271" type="curve" smooth="yes"/>
      <point x="262" y="271"/>
      <point x="233" y="315"/>
      <point x="233" y="351" type="curve" smooth="yes"/>
      <point x="233" y="397"/>
      <point x="270" y="432"/>
      <point x="318" y="432" type="curve" smooth="yes"/>
      <point x="387" y="432"/>
      <point x="431" y="382"/>
      <point x="431" y="306" type="curve" smooth="yes"/>
      <point x="431" y="237"/>
      <point x="375" y="186"/>
      <point x="302" y="186" type="curve" smooth="yes"/>
      <point x="242" y="186"/>
      <point x="173" y="216"/>
      <point x="173" y="295" type="curve" smooth="yes"/>
      <point x="173" y="334"/>
      <point x="180" y="348"/>
      <point x="180" y="379" type="curve" smooth="yes"/>
      <point x="180" y="391"/>
      <point x="176" y="405"/>
      <point x="154" y="405" type="curve" smooth="yes"/>
      <point x="106" y="405"/>
      <point x="68" y="346"/>
      <point x="68" y="267" type="curve" smooth="yes"/>
      <point x="68" y="134"/>
      <point x="173" y="71"/>
      <point x="308" y="71" type="curve" smooth="yes"/>
      <point x="450" y="71"/>
      <point x="546" y="171"/>
      <point x="546" y="278" type="curve"/>
      <point x="557" y="275"/>
      <point x="573" y="274"/>
      <point x="585" y="272" type="curve"/>
      <point x="585" y="112"/>
      <point x="475" y="0"/>
      <point x="310" y="0" type="curve" smooth="yes"/>
      <point x="143" y="0"/>
      <point x="33" y="94"/>
    </contour>
  </outline>
</glyph>
<glyph name="si_NDhUu" format="1">
  <advance width="1078"/>
  <outline>
    <contour>
      <point x="492" y="-138" type="curve" smooth="yes"/>
      <point x="492" y="-80"/>
      <point x="541" y="-40"/>
      <point x="594" y="-40" type="curve" smooth="yes"/>
      <point x="636" y="-40"/>
      <point x="668" y="-55"/>
      <point x="691" y="-91" type="curve"/>
      <point x="661" y="-102" type="line"/>
      <point x="649" y="-83"/>
      <point x="628" y="-68"/>
      <point x="599" y="-68" type="curve" smooth="yes"/>
      <point x="560" y="-68"/>
      <point x="528" y="-92"/>
      <point x="528" y="-129" type="curve" smooth="yes"/>
      <point x="528" y="-166"/>
      <point x="559" y="-191"/>
      <point x="602" y="-191" type="curve" smooth="yes"/>
      <point x="686" y="-191"/>
      <point x="769" y="-117"/>
      <point x="864" y="-117" type="curve" smooth="yes"/>
      <point x="907" y="-117"/>
      <point x="956" y="-136"/>
      <point x="983" y="-168" type="curve"/>
      <point x="983" y="152" type="line"/>
      <point x="1016" y="212" type="line"/>
      <point x="1016" y="-231" type="line"/>
      <point x="993" y="-231" type="line"/>
      <point x="978" y="-195"/>
      <point x="935" y="-144"/>
      <point x="867" y="-144" type="curve" smooth="yes"/>
      <point x="776" y="-144"/>
      <point x="701" y="-237"/>
      <point x="603" y="-237" type="curve" smooth="yes"/>
      <point x="548" y="-237"/>
      <point x="492" y="-206"/>
    </contour>
    <contour>
      <point x="474" y="195" type="curve" smooth="yes"/>
      <point x="474" y="288"/>
      <point x="527" y="364"/>
      <point x="593" y="387" type="curve" smooth="yes"/>
      <point x="614" y="394"/>
      <point x="637" y="398"/>
      <point x="662" y="398" type="curve"/>
      <point x="662" y="373" type="line"/>
      <point x="659" y="373"/>
      <point x="655" y="373"/>
      <point x="652" y="373" type="curve" smooth="yes"/>
      <point x="573" y="373"/>
      <point x="508" y="301"/>
      <point x="508" y="212" type="curve" smooth="yes"/>
      <point x="508" y="136"/>
      <point x="556" y="71"/>
      <point x="629" y="71" type="curve" smooth="yes"/>
      <point x="680" y="71"/>
      <point x="731" y="92"/>
      <point x="731" y="156" type="curve" smooth="yes"/>
      <point x="731" y="196" type="line"/>
      <point x="759" y="196" type="line"/>
      <point x="759" y="156" type="line" smooth="yes"/>
      <point x="759" y="92"/>
      <point x="809" y="71"/>
      <point x="858" y="71" type="curve" smooth="yes"/>
      <point x="954" y="71"/>
      <point x="996" y="181"/>
      <point x="996" y="284" type="curve" smooth="yes"/>
      <point x="996" y="442"/>
      <point x="882" y="556"/>
      <point x="735" y="556" type="curve" smooth="yes"/>
      <point x="654" y="556"/>
      <point x="591" y="527"/>
      <point x="538" y="468" type="curve"/>
      <point x="506" y="468" type="line"/>
      <point x="563" y="543"/>
      <point x="641" y="580"/>
      <point x="740" y="580" type="curve" smooth="yes"/>
      <point x="903" y="580"/>
      <point x="1030" y="446"/>
      <point x="1030" y="261" type="curve" smooth="yes"/>
      <point x="1030" y="139"/>
      <point x="989" y="0"/>
      <point x="863" y="0" type="curve" smooth="yes"/>
      <point x="814" y="0"/>
      <point x="774" y="20"/>
      <point x="744" y="59" type="curve"/>
      <point x="713" y="20"/>
      <point x="676" y="0"/>
      <point x="631" y="0" type="curve" smooth="yes"/>
      <point x="529" y="0"/>
      <point x="474" y="96"/>
    </contour>
    <contour>
      <point x="27" y="124" type="curve"/>
      <point x="41" y="118"/>
      <point x="53" y="115"/>
      <point x="63" y="115" type="curve" smooth="yes"/>
      <point x="124" y="115"/>
      <point x="130" y="201"/>
      <point x="207" y="278" type="curve"/>
      <point x="222" y="293"/>
      <point x="226" y="314"/>
      <point x="226" y="327" type="curve" smooth="yes"/>
      <point x="226" y="365"/>
      <point x="210" y="389"/>
      <point x="176" y="389" type="curve" smooth="yes"/>
      <point x="147" y="389"/>
      <point x="135" y="367"/>
      <point x="134" y="345" type="curve" smooth="yes"/>
      <point x="133" y="326"/>
      <point x="125" y="297"/>
      <point x="93" y="297" type="curve" smooth="yes"/>
      <point x="69" y="297"/>
      <point x="55" y="315"/>
      <point x="55" y="341" type="curve" smooth="yes"/>
      <point x="55" y="383"/>
      <point x="89" y="431"/>
      <point x="154" y="431" type="curve" smooth="yes"/>
      <point x="224" y="431"/>
      <point x="253" y="380"/>
      <point x="253" y="333" type="curve" smooth="yes"/>
      <point x="253" y="332"/>
      <point x="253" y="322"/>
      <point x="251" y="315" type="curve"/>
      <point x="302" y="375"/>
      <point x="401" y="433"/>
      <point x="506" y="433" type="curve" smooth="yes"/>
      <point x="595" y="433"/>
      <point x="642" y="406"/>
      <point x="662" y="398" type="curve"/>
      <point x="643" y="394"/>
      <point x="622" y="392"/>
      <point x="610" y="392" type="curve"/>
      <point x="592" y="397"/>
      <point x="559" y="408"/>
      <point x="501" y="408" type="curve" smooth="yes"/>
      <point x="401" y="408"/>
      <point x="310" y="345"/>
      <point x="266" y="295" type="curve"/>
      <point x="292" y="304"/>
      <point x="317" y="308"/>
      <point x="345" y="308" type="curve" smooth="yes"/>
      <point x="429" y="308"/>
      <point x="498" y="249"/>
      <point x="498" y="169" type="curve" smooth="yes"/>
      <point x="498" y="53"/>
      <point x="398" y="-1"/>
      <point x="276" y="-1" type="curve" smooth="yes"/>
      <point x="150" y="-1"/>
      <point x="67" y="41"/>
    </contour>
    <contour>
      <point x="107" y="102" type="curve"/>
      <point x="153" y="82"/>
      <point x="205" y="72"/>
      <point x="264" y="72" type="curve" smooth="yes"/>
      <point x="374" y="72"/>
      <point x="454" y="110"/>
      <point x="454" y="190" type="curve" smooth="yes"/>
      <point x="454" y="246"/>
      <point x="399" y="284"/>
      <point x="338" y="284" type="curve" smooth="yes"/>
      <point x="160" y="284"/>
      <point x="180" y="144"/>
    </contour>
  </outline>
</glyph>
<glyph name="si_NI" format="1">
  <advance width="806"/>
  <outline>
    <contour>
      <point x="269" y="421" type="curve" smooth="yes"/>
      <point x="269" y="390"/>
      <point x="274" y="356"/>
      <point x="278" y="338" type="curve"/>
      <point x="302" y="354" type="line"/>
      <point x="299" y="365"/>
      <point x="296" y="389"/>
      <point x="296" y="404" type="curve" smooth="yes"/>
      <point x="296" y="528"/>
      <point x="387" y="598"/>
      <point x="524" y="598" type="curve" smooth="yes"/>
      <point x="606" y="598"/>
      <point x="707" y="574"/>
      <point x="707" y="486" type="curve" smooth="yes"/>
      <point x="707" y="440"/>
      <point x="669" y="405"/>
      <point x="629" y="403" type="curve"/>
      <point x="661" y="383" type="line"/>
      <point x="709" y="402"/>
      <point x="739" y="444"/>
      <point x="739" y="505" type="curve" smooth="yes"/>
      <point x="739" y="610"/>
      <point x="654" y="671"/>
      <point x="524" y="671" type="curve" smooth="yes"/>
      <point x="381" y="671"/>
      <point x="269" y="590"/>
    </contour>
  </outline>
</glyph>
<glyph name="si_NThI" format="1">
  <advance width="1046"/>
  <outline>
    <contour>
      <point x="540" y="574" type="curve" smooth="yes"/>
      <point x="540" y="666"/>
      <point x="654" y="700"/>
      <point x="762" y="700" type="curve" smooth="yes"/>
      <point x="864" y="700"/>
      <point x="984" y="664"/>
      <point x="984" y="573" type="curve" smooth="yes"/>
      <point x="984" y="526"/>
      <point x="943" y="499"/>
      <point x="904" y="499" type="curve"/>
      <point x="898" y="504"/>
      <point x="889" y="513"/>
      <point x="885" y="521" type="curve"/>
      <point x="898" y="521"/>
      <point x="947" y="524"/>
      <point x="947" y="565" type="curve" smooth="yes"/>
      <point x="947" y="622"/>
      <point x="839" y="635"/>
      <point x="765" y="635" type="curve" smooth="yes"/>
      <point x="646" y="635"/>
      <point x="579" y="611"/>
      <point x="579" y="566" type="curve" smooth="yes"/>
      <point x="579" y="527"/>
      <point x="622" y="514"/>
      <point x="656" y="514" type="curve" smooth="yes"/>
      <point x="701" y="514"/>
      <point x="735" y="527"/>
      <point x="752" y="535" type="curve"/>
      <point x="750" y="528"/>
      <point x="751" y="521"/>
      <point x="748" y="505" type="curve"/>
      <point x="723" y="497"/>
      <point x="697" y="489"/>
      <point x="654" y="489" type="curve" smooth="yes"/>
      <point x="594" y="489"/>
      <point x="540" y="516"/>
    </contour>
  </outline>
</glyph>
<glyph name="si_NThU" format="1">
  <advance width="1046"/>
  <outline>
    <contour>
      <point x="487" y="-142" type="curve" smooth="yes"/>
      <point x="487" y="-90"/>
      <point x="534" y="-50"/>
      <point x="589" y="-50" type="curve" smooth="yes"/>
      <point x="631" y="-50"/>
      <point x="668" y="-74"/>
      <point x="683" y="-110" type="curve"/>
      <point x="653" y="-122" type="line"/>
      <point x="646" y="-102"/>
      <point x="622" y="-80"/>
      <point x="589" y="-80" type="curve" smooth="yes"/>
      <point x="552" y="-80"/>
      <point x="521" y="-107"/>
      <point x="521" y="-142" type="curve" smooth="yes"/>
      <point x="521" y="-172"/>
      <point x="544" y="-199"/>
      <point x="610" y="-199" type="curve" smooth="yes"/>
      <point x="958" y="-199" type="line"/>
      <point x="958" y="128" type="line"/>
      <point x="991" y="219" type="line"/>
      <point x="991" y="-235" type="line"/>
      <point x="593" y="-235" type="line" smooth="yes"/>
      <point x="524" y="-235"/>
      <point x="487" y="-186"/>
    </contour>
    <contour>
      <point x="467" y="235" type="curve" smooth="yes"/>
      <point x="467" y="345"/>
      <point x="568" y="430"/>
      <point x="679" y="430" type="curve"/>
      <point x="679" y="405" type="line"/>
      <point x="582" y="405"/>
      <point x="501" y="336"/>
      <point x="501" y="242" type="curve" smooth="yes"/>
      <point x="501" y="122"/>
      <point x="607" y="71"/>
      <point x="739" y="71" type="curve" smooth="yes"/>
      <point x="867" y="71"/>
      <point x="965" y="154"/>
      <point x="965" y="281" type="curve" smooth="yes"/>
      <point x="965" y="338"/>
      <point x="948" y="388"/>
      <point x="927" y="420" type="curve"/>
      <point x="912" y="387"/>
      <point x="882" y="367"/>
      <point x="839" y="367" type="curve" smooth="yes"/>
      <point x="776" y="367"/>
      <point x="739" y="422"/>
      <point x="739" y="488" type="curve" smooth="yes"/>
      <point x="739" y="538"/>
      <point x="754" y="574"/>
      <point x="781" y="605" type="curve"/>
      <point x="842" y="572"/>
      <point x="913" y="500"/>
      <point x="949" y="438" type="curve" smooth="yes"/>
      <point x="988" y="371"/>
      <point x="1000" y="322"/>
      <point x="1000" y="252" type="curve" smooth="yes"/>
      <point x="1000" y="103"/>
      <point x="884" y="-1"/>
      <point x="729" y="-1" type="curve" smooth="yes"/>
      <point x="585" y="-1"/>
      <point x="467" y="92"/>
    </contour>
    <contour>
      <point x="769" y="492" type="curve" smooth="yes"/>
      <point x="769" y="443"/>
      <point x="789" y="403"/>
      <point x="846" y="403" type="curve" smooth="yes"/>
      <point x="870" y="403"/>
      <point x="898" y="414"/>
      <point x="908" y="448" type="curve"/>
      <point x="878" y="494"/>
      <point x="828" y="540"/>
      <point x="790" y="568" type="curve"/>
      <point x="778" y="550"/>
      <point x="769" y="527"/>
    </contour>
    <contour>
      <point x="27" y="124" type="curve"/>
      <point x="41" y="118"/>
      <point x="53" y="115"/>
      <point x="63" y="115" type="curve" smooth="yes"/>
      <point x="124" y="115"/>
      <point x="130" y="201"/>
      <point x="207" y="278" type="curve"/>
      <point x="222" y="293"/>
      <point x="226" y="314"/>
      <point x="226" y="327" type="curve" smooth="yes"/>
      <point x="226" y="365"/>
      <point x="210" y="389"/>
      <point x="176" y="389" type="curve" smooth="yes"/>
      <point x="147" y="389"/>
      <point x="135" y="367"/>
      <point x="134" y="345" type="curve" smooth="yes"/>
      <point x="133" y="326"/>
      <point x="125" y="297"/>
      <point x="93" y="297" type="curve" smooth="yes"/>
      <point x="69" y="297"/>
      <point x="55" y="315"/>
      <point x="55" y="341" type="curve" smooth="yes"/>
      <point x="55" y="383"/>
      <point x="89" y="431"/>
      <point x="154" y="431" type="curve" smooth="yes"/>
      <point x="224" y="431"/>
      <point x="253" y="380"/>
      <point x="253" y="333" type="curve" smooth="yes"/>
      <point x="253" y="332"/>
      <point x="253" y="322"/>
      <point x="251" y="315" type="curve"/>
      <point x="308" y="369"/>
      <point x="401" y="436"/>
      <point x="591" y="436" type="curve" smooth="yes"/>
      <point x="616" y="436"/>
      <point x="656" y="434"/>
      <point x="679" y="430" type="curve"/>
      <point x="660" y="426"/>
      <point x="618" y="409"/>
      <point x="606" y="408" type="curve"/>
      <point x="597" y="409"/>
      <point x="595" y="409"/>
      <point x="585" y="409" type="curve" smooth="yes"/>
      <point x="428" y="409"/>
      <point x="339" y="361"/>
      <point x="266" y="295" type="curve"/>
      <point x="292" y="304"/>
      <point x="317" y="308"/>
      <point x="345" y="308" type="curve" smooth="yes"/>
      <point x="429" y="308"/>
      <point x="498" y="249"/>
      <point x="498" y="169" type="curve" smooth="yes"/>
      <point x="498" y="53"/>
      <point x="398" y="-1"/>
      <point x="276" y="-1" type="curve" smooth="yes"/>
      <point x="150" y="-1"/>
      <point x="67" y="41"/>
    </contour>
    <contour>
      <point x="107" y="102" type="curve"/>
      <point x="153" y="82"/>
      <point x="205" y="72"/>
      <point x="264" y="72" type="curve" smooth="yes"/>
      <point x="374" y="72"/>
      <point x="454" y="110"/>
      <point x="454" y="190" type="curve" smooth="yes"/>
      <point x="454" y="246"/>
      <point x="399" y="284"/>
      <point x="338" y="284" type="curve" smooth="yes"/>
      <point x="160" y="284"/>
      <point x="180" y="144"/>
    </contour>
  </outline>
</glyph>
<glyph name="si_NThUu" format="1">
  <advance width="1046"/>
  <outline>
    <contour>
      <point x="486" y="-138" type="curve" smooth="yes"/>
      <point x="486" y="-80"/>
      <point x="536" y="-40"/>
      <point x="588" y="-40" type="curve" smooth="yes"/>
      <point x="630" y="-40"/>
      <point x="663" y="-55"/>
      <point x="686" y="-91" type="curve"/>
      <point x="656" y="-102" type="line"/>
      <point x="644" y="-83"/>
      <point x="622" y="-68"/>
      <point x="594" y="-68" type="curve" smooth="yes"/>
      <point x="554" y="-68"/>
      <point x="522" y="-92"/>
      <point x="522" y="-129" type="curve" smooth="yes"/>
      <point x="522" y="-166"/>
      <point x="554" y="-191"/>
      <point x="596" y="-191" type="curve" smooth="yes"/>
      <point x="680" y="-191"/>
      <point x="750" y="-117"/>
      <point x="845" y="-117" type="curve" smooth="yes"/>
      <point x="893" y="-117"/>
      <point x="931" y="-136"/>
      <point x="958" y="-168" type="curve"/>
      <point x="958" y="152" type="line"/>
      <point x="991" y="212" type="line"/>
      <point x="991" y="-231" type="line"/>
      <point x="968" y="-231" type="line"/>
      <point x="953" y="-195"/>
      <point x="913" y="-144"/>
      <point x="848" y="-144" type="curve" smooth="yes"/>
      <point x="757" y="-144"/>
      <point x="696" y="-237"/>
      <point x="598" y="-237" type="curve" smooth="yes"/>
      <point x="542" y="-237"/>
      <point x="486" y="-206"/>
    </contour>
  </outline>
</glyph>
<glyph name="si_NUu" format="1">
  <advance width="806"/>
  <outline>
    <contour>
      <point x="139" y="-138" type="curve" smooth="yes"/>
      <point x="139" y="-80"/>
      <point x="188" y="-40"/>
      <point x="241" y="-40" type="curve" smooth="yes"/>
      <point x="283" y="-40"/>
      <point x="315" y="-55"/>
      <point x="338" y="-91" type="curve"/>
      <point x="308" y="-102" type="line"/>
      <point x="296" y="-83"/>
      <point x="275" y="-68"/>
      <point x="246" y="-68" type="curve" smooth="yes"/>
      <point x="207" y="-68"/>
      <point x="175" y="-92"/>
      <point x="175" y="-129" type="curve" smooth="yes"/>
      <point x="175" y="-166"/>
      <point x="204" y="-191"/>
      <point x="266" y="-191" type="curve" smooth="yes"/>
      <point x="373" y="-191"/>
      <point x="427" y="-115"/>
      <point x="548" y="-115" type="curve" smooth="yes"/>
      <point x="634" y="-115"/>
      <point x="689" y="-146"/>
      <point x="719" y="-171" type="curve"/>
      <point x="719" y="152" type="line"/>
      <point x="752" y="212" type="line"/>
      <point x="752" y="-231" type="line"/>
      <point x="729" y="-231" type="line"/>
      <point x="713" y="-196"/>
      <point x="659" y="-142"/>
      <point x="557" y="-142" type="curve" smooth="yes"/>
      <point x="433" y="-142"/>
      <point x="388" y="-237"/>
      <point x="265" y="-237" type="curve" smooth="yes"/>
      <point x="204" y="-237"/>
      <point x="139" y="-206"/>
    </contour>
    <component base="uni0DB1"/>
  </outline>
</glyph>
<glyph name="si_NVUu" format="1">
  <advance width="1032"/>
  <outline>
    <contour>
      <point x="484" y="-138" type="curve" smooth="yes"/>
      <point x="484" y="-80"/>
      <point x="532" y="-40"/>
      <point x="586" y="-40" type="curve" smooth="yes"/>
      <point x="628" y="-40"/>
      <point x="660" y="-55"/>
      <point x="682" y="-91" type="curve"/>
      <point x="652" y="-102" type="line"/>
      <point x="640" y="-83"/>
      <point x="620" y="-68"/>
      <point x="590" y="-68" type="curve" smooth="yes"/>
      <point x="552" y="-68"/>
      <point x="520" y="-92"/>
      <point x="520" y="-129" type="curve" smooth="yes"/>
      <point x="520" y="-166"/>
      <point x="550" y="-191"/>
      <point x="594" y="-191" type="curve" smooth="yes"/>
      <point x="678" y="-191"/>
      <point x="744" y="-117"/>
      <point x="839" y="-117" type="curve" smooth="yes"/>
      <point x="887" y="-117"/>
      <point x="918" y="-134"/>
      <point x="942" y="-160" type="curve"/>
      <point x="942" y="152" type="line"/>
      <point x="976" y="212" type="line"/>
      <point x="976" y="-231" type="line"/>
      <point x="952" y="-231" type="line"/>
      <point x="938" y="-195"/>
      <point x="907" y="-144"/>
      <point x="842" y="-144" type="curve" smooth="yes"/>
      <point x="751" y="-144"/>
      <point x="692" y="-237"/>
      <point x="594" y="-237" type="curve" smooth="yes"/>
      <point x="540" y="-237"/>
      <point x="484" y="-206"/>
    </contour>
  </outline>
</glyph>
<glyph name="si_N.halant" format="1">
  <advance width="806"/>
  <outline>
    <contour>
      <point x="607" y="347" type="line"/>
      <point x="634" y="330" type="line"/>
      <point x="634" y="477" type="line"/>
      <point x="649" y="470"/>
      <point x="664" y="467"/>
      <point x="679" y="467" type="curve" smooth="yes"/>
      <point x="722" y="467"/>
      <point x="757" y="497"/>
      <point x="757" y="541" type="curve" smooth="yes"/>
      <point x="757" y="633"/>
      <point x="661" y="638"/>
      <point x="607" y="680" type="curve"/>
    </contour>
    <contour>
      <point x="634" y="502" type="curve"/>
      <point x="634" y="637" type="line"/>
      <point x="681" y="606"/>
      <point x="720" y="586"/>
      <point x="720" y="544" type="curve" smooth="yes"/>
      <point x="720" y="520"/>
      <point x="705" y="495"/>
      <point x="667" y="495" type="curve" smooth="yes"/>
      <point x="654" y="495"/>
      <point x="643" y="497"/>
    </contour>
  </outline>
</glyph>
<glyph name="si_Na.reph" format="1">
  <advance width="806"/>
  <outline>
    <contour>
      <point x="455" y="511" type="curve" smooth="yes"/>
      <point x="455" y="490"/>
      <point x="473" y="474"/>
      <point x="496" y="474" type="curve" smooth="yes"/>
      <point x="518" y="474"/>
      <point x="536" y="490"/>
      <point x="536" y="511" type="curve" smooth="yes"/>
      <point x="536" y="532"/>
      <point x="518" y="548"/>
      <point x="496" y="548" type="curve" smooth="yes"/>
      <point x="473" y="548"/>
      <point x="455" y="532"/>
    </contour>
    <contour>
      <point x="352" y="530" type="curve" smooth="yes"/>
      <point x="352" y="594"/>
      <point x="411" y="631"/>
      <point x="492" y="631" type="curve" smooth="yes"/>
      <point x="570" y="631"/>
      <point x="634" y="588"/>
      <point x="634" y="517" type="curve" smooth="yes"/>
      <point x="634" y="493"/>
      <point x="625" y="471"/>
      <point x="608" y="452" type="curve"/>
      <point x="575" y="452" type="line"/>
      <point x="588" y="464"/>
      <point x="603" y="489"/>
      <point x="603" y="516" type="curve" smooth="yes"/>
      <point x="603" y="573"/>
      <point x="552" y="604"/>
      <point x="492" y="604" type="curve" smooth="yes"/>
      <point x="439" y="604"/>
      <point x="384" y="583"/>
      <point x="384" y="530" type="curve" smooth="yes"/>
      <point x="384" y="491"/>
      <point x="425" y="472"/>
      <point x="448" y="470" type="curve"/>
      <point x="440" y="476"/>
      <point x="428" y="491"/>
      <point x="428" y="512" type="curve" smooth="yes"/>
      <point x="428" y="547"/>
      <point x="459" y="572"/>
      <point x="494" y="572" type="curve" smooth="yes"/>
      <point x="536" y="572"/>
      <point x="564" y="545"/>
      <point x="564" y="510" type="curve" smooth="yes"/>
      <point x="564" y="471"/>
      <point x="528" y="445"/>
      <point x="470" y="445" type="curve" smooth="yes"/>
      <point x="412" y="445"/>
      <point x="352" y="474"/>
    </contour>
  </outline>
</glyph>
<glyph name="si_NDIi" format="1">
  <advance width="894"/>
  <outline>
    <contour>
      <point x="685" y="514" type="curve" smooth="yes"/>
      <point x="685" y="483"/>
      <point x="715" y="458"/>
      <point x="751" y="458" type="curve" smooth="yes"/>
      <point x="787" y="458"/>
      <point x="817" y="483"/>
      <point x="817" y="514" type="curve" smooth="yes"/>
      <point x="817" y="545"/>
      <point x="787" y="570"/>
      <point x="751" y="570" type="curve" smooth="yes"/>
      <point x="715" y="570"/>
      <point x="685" y="545"/>
    </contour>
    <contour>
      <point x="474" y="518" type="curve" smooth="yes"/>
      <point x="474" y="619"/>
      <point x="565" y="671"/>
      <point x="662" y="671" type="curve" smooth="yes"/>
      <point x="758" y="671"/>
      <point x="849" y="614"/>
      <point x="849" y="523" type="curve" smooth="yes"/>
      <point x="849" y="463"/>
      <point x="802" y="429"/>
      <point x="751" y="429" type="curve" smooth="yes"/>
      <point x="691" y="429"/>
      <point x="653" y="470"/>
      <point x="653" y="515" type="curve" smooth="yes"/>
      <point x="653" y="560"/>
      <point x="690" y="587"/>
      <point x="716" y="592" type="curve"/>
      <point x="706" y="595"/>
      <point x="675" y="598"/>
      <point x="662" y="598" type="curve" smooth="yes"/>
      <point x="589" y="598"/>
      <point x="505" y="573"/>
      <point x="505" y="509" type="curve" smooth="yes"/>
      <point x="505" y="464"/>
      <point x="543" y="436"/>
      <point x="596" y="436" type="curve"/>
      <point x="529" y="432" type="line"/>
      <point x="521" y="433"/>
      <point x="474" y="455"/>
    </contour>
  </outline>
</glyph>
<glyph name="si_ND.halant" format="1">
  <advance width="894"/>
  <outline>
    <contour>
      <point x="703" y="413" type="line"/>
      <point x="730" y="396" type="line"/>
      <point x="730" y="477" type="line"/>
      <point x="745" y="470"/>
      <point x="760" y="467"/>
      <point x="775" y="467" type="curve" smooth="yes"/>
      <point x="818" y="467"/>
      <point x="853" y="497"/>
      <point x="853" y="541" type="curve" smooth="yes"/>
      <point x="853" y="633"/>
      <point x="757" y="638"/>
      <point x="703" y="680" type="curve"/>
    </contour>
    <contour>
      <point x="730" y="502" type="curve"/>
      <point x="730" y="637" type="line"/>
      <point x="777" y="606"/>
      <point x="816" y="586"/>
      <point x="816" y="544" type="curve" smooth="yes"/>
      <point x="816" y="520"/>
      <point x="801" y="495"/>
      <point x="763" y="495" type="curve" smooth="yes"/>
      <point x="750" y="495"/>
      <point x="739" y="497"/>
    </contour>
  </outline>
</glyph>
<glyph name="si_Nddha.touch" format="1">
  <advance width="731"/>
  <outline>
    <contour>
      <point x="102" y="288" type="line"/>
      <point x="102" y="315" type="line"/>
      <point x="348" y="315" type="line"/>
      <point x="345" y="358"/>
      <point x="315" y="391"/>
      <point x="285" y="391" type="curve" smooth="yes"/>
      <point x="267" y="391"/>
      <point x="252" y="387"/>
      <point x="238" y="363" type="curve" smooth="yes"/>
      <point x="227" y="344"/>
      <point x="214" y="339"/>
      <point x="200" y="339" type="curve" smooth="yes"/>
      <point x="180" y="339"/>
      <point x="163" y="353"/>
      <point x="163" y="374" type="curve" smooth="yes"/>
      <point x="163" y="414"/>
      <point x="210" y="432"/>
      <point x="252" y="432" type="curve" smooth="yes"/>
      <point x="336" y="432"/>
      <point x="381" y="374"/>
      <point x="382" y="288" type="curve"/>
      <point x="307" y="288" type="line" smooth="yes"/>
      <point x="214" y="288"/>
      <point x="170" y="230"/>
      <point x="170" y="174" type="curve" smooth="yes"/>
      <point x="170" y="122"/>
      <point x="210" y="71"/>
      <point x="285" y="71" type="curve" smooth="yes"/>
      <point x="334" y="71"/>
      <point x="386" y="95"/>
      <point x="386" y="143" type="curve" smooth="yes"/>
      <point x="386" y="178" type="line"/>
      <point x="413" y="178" type="line"/>
      <point x="413" y="143" type="line" smooth="yes"/>
      <point x="413" y="97"/>
      <point x="461" y="71"/>
      <point x="511" y="71" type="curve" smooth="yes"/>
      <point x="607" y="71"/>
      <point x="649" y="167"/>
      <point x="649" y="273" type="curve" smooth="yes"/>
      <point x="649" y="428"/>
      <point x="543" y="556"/>
      <point x="385" y="556" type="curve" smooth="yes"/>
      <point x="305" y="556"/>
      <point x="240" y="525"/>
      <point x="193" y="468" type="curve"/>
      <point x="160" y="468" type="line"/>
      <point x="214" y="546"/>
      <point x="297" y="582"/>
      <point x="391" y="582" type="curve" smooth="yes"/>
      <point x="566" y="582"/>
      <point x="685" y="444"/>
      <point x="685" y="258" type="curve" smooth="yes"/>
      <point x="685" y="126"/>
      <point x="634" y="0"/>
      <point x="515" y="0" type="curve" smooth="yes"/>
      <point x="450" y="0"/>
      <point x="422" y="29"/>
      <point x="400" y="59" type="curve"/>
      <point x="370" y="22"/>
      <point x="337" y="0"/>
      <point x="286" y="0" type="curve" smooth="yes"/>
      <point x="185" y="0"/>
      <point x="133" y="81"/>
      <point x="133" y="162" type="curve" smooth="yes"/>
      <point x="133" y="212"/>
      <point x="158" y="264"/>
      <point x="212" y="288" type="curve"/>
    </contour>
    <contour>
      <point x="27" y="221" type="curve" smooth="yes"/>
      <point x="27" y="353"/>
      <point x="100" y="433"/>
      <point x="239" y="433" type="curve" smooth="yes"/>
      <point x="248" y="433"/>
      <point x="271" y="433"/>
      <point x="293" y="427" type="curve"/>
      <point x="272" y="416"/>
      <point x="194" y="406"/>
      <point x="177" y="400" type="curve"/>
      <point x="102" y="382"/>
      <point x="56" y="319"/>
      <point x="56" y="218" type="curve" smooth="yes"/>
      <point x="56" y="137"/>
      <point x="83" y="75"/>
      <point x="135" y="30" type="curve"/>
      <point x="135" y="0" type="line"/>
      <point x="69" y="33"/>
      <point x="27" y="120"/>
    </contour>
  </outline>
</glyph>
<glyph name="si_NdjI" format="1">
  <advance width="699"/>
  <outline>
    <contour>
      <point x="334" y="490" type="curve" smooth="yes"/>
      <point x="334" y="577"/>
      <point x="404" y="657"/>
      <point x="483" y="657" type="curve" smooth="yes"/>
      <point x="530" y="657"/>
      <point x="562" y="626"/>
      <point x="562" y="583" type="curve" smooth="yes"/>
      <point x="562" y="579"/>
      <point x="561" y="576"/>
      <point x="561" y="572" type="curve"/>
      <point x="531" y="544" type="line"/>
      <point x="535" y="550"/>
      <point x="537" y="565"/>
      <point x="537" y="576" type="curve" smooth="yes"/>
      <point x="537" y="604"/>
      <point x="525" y="622"/>
      <point x="494" y="622" type="curve" smooth="yes"/>
      <point x="437" y="622"/>
      <point x="378" y="550"/>
      <point x="378" y="486" type="curve" smooth="yes"/>
      <point x="378" y="454"/>
      <point x="392" y="429"/>
      <point x="433" y="429" type="curve" smooth="yes"/>
      <point x="447" y="429"/>
      <point x="458" y="431"/>
      <point x="475" y="436" type="curve"/>
      <point x="471" y="425" type="line"/>
      <point x="458" y="417"/>
      <point x="430" y="408"/>
      <point x="428" y="407" type="curve"/>
      <point x="427" y="407"/>
      <point x="425" y="407"/>
      <point x="424" y="407" type="curve" smooth="yes"/>
      <point x="361" y="407"/>
      <point x="334" y="439"/>
    </contour>
    <component base="si_Ndja"/>
  </outline>
</glyph>
<glyph name="si_Ndj.halant" format="1">
  <advance width="699"/>
  <outline>
    <contour>
      <point x="402" y="356" type="line"/>
      <point x="402" y="756" type="line"/>
      <point x="459" y="709"/>
      <point x="549" y="704"/>
      <point x="549" y="626" type="curve" smooth="yes"/>
      <point x="549" y="581"/>
      <point x="515" y="550"/>
      <point x="472" y="550" type="curve" smooth="yes"/>
      <point x="458" y="550"/>
      <point x="443" y="552"/>
      <point x="428" y="556" type="curve"/>
      <point x="428" y="400" type="line"/>
    </contour>
    <contour>
      <point x="428" y="581" type="line"/>
      <point x="438" y="577"/>
      <point x="450" y="575"/>
      <point x="465" y="575" type="curve" smooth="yes"/>
      <point x="498" y="575"/>
      <point x="512" y="599"/>
      <point x="512" y="622" type="curve" smooth="yes"/>
      <point x="512" y="672"/>
      <point x="465" y="687"/>
      <point x="428" y="712" type="curve"/>
    </contour>
    <component base="uni0DA6"/>
  </outline>
</glyph>
<glyph name="si_NnddUu" format="1">
  <advance width="731"/>
  <outline>
    <contour>
      <point x="137" y="-138" type="curve" smooth="yes"/>
      <point x="137" y="-80"/>
      <point x="186" y="-40"/>
      <point x="239" y="-40" type="curve" smooth="yes"/>
      <point x="281" y="-40"/>
      <point x="314" y="-55"/>
      <point x="336" y="-91" type="curve"/>
      <point x="306" y="-102" type="line"/>
      <point x="294" y="-83"/>
      <point x="273" y="-68"/>
      <point x="244" y="-68" type="curve" smooth="yes"/>
      <point x="205" y="-68"/>
      <point x="173" y="-92"/>
      <point x="173" y="-129" type="curve" smooth="yes"/>
      <point x="173" y="-166"/>
      <point x="204" y="-191"/>
      <point x="247" y="-191" type="curve" smooth="yes"/>
      <point x="331" y="-191"/>
      <point x="418" y="-117"/>
      <point x="513" y="-117" type="curve" smooth="yes"/>
      <point x="563" y="-117"/>
      <point x="612" y="-136"/>
      <point x="639" y="-168" type="curve"/>
      <point x="639" y="152" type="line"/>
      <point x="672" y="212" type="line"/>
      <point x="672" y="-231" type="line"/>
      <point x="649" y="-231" type="line"/>
      <point x="630" y="-193"/>
      <point x="587" y="-145"/>
      <point x="516" y="-145" type="curve" smooth="yes"/>
      <point x="425" y="-145"/>
      <point x="346" y="-237"/>
      <point x="248" y="-237" type="curve" smooth="yes"/>
      <point x="193" y="-237"/>
      <point x="137" y="-206"/>
    </contour>
    <contour>
      <point x="101" y="288" type="line"/>
      <point x="101" y="315" type="line"/>
      <point x="347" y="315" type="line"/>
      <point x="344" y="358"/>
      <point x="314" y="391"/>
      <point x="284" y="391" type="curve" smooth="yes"/>
      <point x="267" y="391"/>
      <point x="251" y="387"/>
      <point x="237" y="363" type="curve" smooth="yes"/>
      <point x="226" y="344"/>
      <point x="213" y="339"/>
      <point x="199" y="339" type="curve" smooth="yes"/>
      <point x="179" y="339"/>
      <point x="162" y="353"/>
      <point x="162" y="374" type="curve" smooth="yes"/>
      <point x="162" y="414"/>
      <point x="209" y="432"/>
      <point x="252" y="432" type="curve" smooth="yes"/>
      <point x="336" y="432"/>
      <point x="380" y="374"/>
      <point x="381" y="288" type="curve"/>
      <point x="306" y="288" type="line" smooth="yes"/>
      <point x="213" y="288"/>
      <point x="170" y="230"/>
      <point x="170" y="174" type="curve" smooth="yes"/>
      <point x="170" y="122"/>
      <point x="210" y="71"/>
      <point x="284" y="71" type="curve" smooth="yes"/>
      <point x="333" y="71"/>
      <point x="385" y="95"/>
      <point x="385" y="143" type="curve" smooth="yes"/>
      <point x="385" y="178" type="line"/>
      <point x="412" y="178" type="line"/>
      <point x="412" y="143" type="line" smooth="yes"/>
      <point x="412" y="97"/>
      <point x="460" y="71"/>
      <point x="510" y="71" type="curve" smooth="yes"/>
      <point x="607" y="71"/>
      <point x="648" y="167"/>
      <point x="648" y="273" type="curve" smooth="yes"/>
      <point x="648" y="428"/>
      <point x="542" y="556"/>
      <point x="385" y="556" type="curve" smooth="yes"/>
      <point x="304" y="556"/>
      <point x="239" y="525"/>
      <point x="192" y="468" type="curve"/>
      <point x="159" y="468" type="line"/>
      <point x="214" y="546"/>
      <point x="296" y="582"/>
      <point x="390" y="582" type="curve" smooth="yes"/>
      <point x="565" y="582"/>
      <point x="684" y="444"/>
      <point x="684" y="258" type="curve" smooth="yes"/>
      <point x="684" y="126"/>
      <point x="633" y="0"/>
      <point x="514" y="0" type="curve" smooth="yes"/>
      <point x="449" y="0"/>
      <point x="421" y="29"/>
      <point x="399" y="59" type="curve"/>
      <point x="370" y="22"/>
      <point x="336" y="0"/>
      <point x="285" y="0" type="curve" smooth="yes"/>
      <point x="184" y="0"/>
      <point x="132" y="81"/>
      <point x="132" y="162" type="curve" smooth="yes"/>
      <point x="132" y="212"/>
      <point x="157" y="264"/>
      <point x="211" y="288" type="curve"/>
    </contour>
    <contour>
      <point x="27" y="221" type="curve" smooth="yes"/>
      <point x="27" y="353"/>
      <point x="100" y="433"/>
      <point x="239" y="433" type="curve" smooth="yes"/>
      <point x="248" y="433"/>
      <point x="271" y="433"/>
      <point x="293" y="427" type="curve"/>
      <point x="272" y="416"/>
      <point x="194" y="406"/>
      <point x="177" y="400" type="curve"/>
      <point x="102" y="382"/>
      <point x="56" y="319"/>
      <point x="56" y="218" type="curve" smooth="yes"/>
      <point x="56" y="137"/>
      <point x="83" y="75"/>
      <point x="135" y="30" type="curve"/>
      <point x="135" y="0" type="line"/>
      <point x="69" y="33"/>
      <point x="27" y="120"/>
    </contour>
  </outline>
</glyph>
<glyph name="si_NyI" format="1">
  <advance width="1024"/>
  <outline>
    <contour>
      <point x="607" y="518" type="curve" smooth="yes"/>
      <point x="607" y="454"/>
      <point x="664" y="420"/>
      <point x="718" y="414" type="curve"/>
      <point x="729" y="441" type="line"/>
      <point x="694" y="441"/>
      <point x="638" y="460"/>
      <point x="638" y="508" type="curve" smooth="yes"/>
      <point x="638" y="573"/>
      <point x="723" y="598"/>
      <point x="795" y="598" type="curve" smooth="yes"/>
      <point x="867" y="598"/>
      <point x="953" y="570"/>
      <point x="953" y="508" type="curve" smooth="yes"/>
      <point x="953" y="460"/>
      <point x="905" y="427"/>
      <point x="856" y="426" type="curve" smooth="yes"/>
      <point x="849" y="426"/>
      <point x="831" y="427"/>
      <point x="819" y="429" type="curve"/>
      <point x="867" y="404" type="line"/>
      <point x="920" y="406"/>
      <point x="983" y="443"/>
      <point x="983" y="518" type="curve" smooth="yes"/>
      <point x="983" y="617"/>
      <point x="892" y="670"/>
      <point x="795" y="670" type="curve" smooth="yes"/>
      <point x="698" y="670"/>
      <point x="607" y="618"/>
    </contour>
    <component base="si_Nya"/>
  </outline>
</glyph>
<glyph name="si_PRI" format="1">
  <advance width="616"/>
  <outline>
    <contour>
      <point x="68" y="518" type="curve" smooth="yes"/>
      <point x="68" y="626"/>
      <point x="181" y="671"/>
      <point x="300" y="671" type="curve" smooth="yes"/>
      <point x="419" y="671"/>
      <point x="532" y="626"/>
      <point x="532" y="518" type="curve" smooth="yes"/>
      <point x="532" y="443"/>
      <point x="466" y="408"/>
      <point x="389" y="405" type="curve"/>
      <point x="389" y="426" type="line"/>
      <point x="443" y="429"/>
      <point x="498" y="454"/>
      <point x="498" y="509" type="curve" smooth="yes"/>
      <point x="498" y="580"/>
      <point x="389" y="598"/>
      <point x="300" y="598" type="curve" smooth="yes"/>
      <point x="211" y="598"/>
      <point x="102" y="580"/>
      <point x="102" y="509" type="curve" smooth="yes"/>
      <point x="102" y="454"/>
      <point x="157" y="429"/>
      <point x="211" y="426" type="curve"/>
      <point x="211" y="405" type="line"/>
      <point x="134" y="408"/>
      <point x="68" y="443"/>
    </contour>
    <contour>
      <point x="50" y="-44" type="curve"/>
      <point x="79" y="-44" type="line"/>
      <point x="113" y="-119"/>
      <point x="185" y="-157"/>
      <point x="287" y="-157" type="curve" smooth="yes"/>
      <point x="425" y="-157"/>
      <point x="542" y="-90"/>
      <point x="542" y="50" type="curve" smooth="yes"/>
      <point x="542" y="71"/>
      <point x="536" y="99"/>
      <point x="524" y="112" type="curve"/>
      <point x="540" y="140" type="line"/>
      <point x="563" y="107"/>
      <point x="571" y="75"/>
      <point x="571" y="38" type="curve" smooth="yes"/>
      <point x="571" y="-124"/>
      <point x="442" y="-219"/>
      <point x="302" y="-219" type="curve" smooth="yes"/>
      <point x="173" y="-219"/>
      <point x="87" y="-153"/>
    </contour>
    <component base="si_Pa"/>
  </outline>
</glyph>
<glyph name="si_PU" format="1">
  <advance width="616"/>
  <outline>
    <contour>
      <point x="45" y="-142" type="curve" smooth="yes"/>
      <point x="45" y="-90"/>
      <point x="92" y="-50"/>
      <point x="147" y="-50" type="curve" smooth="yes"/>
      <point x="189" y="-50"/>
      <point x="226" y="-74"/>
      <point x="241" y="-110" type="curve"/>
      <point x="211" y="-122" type="line"/>
      <point x="204" y="-102"/>
      <point x="180" y="-80"/>
      <point x="147" y="-80" type="curve" smooth="yes"/>
      <point x="110" y="-80"/>
      <point x="79" y="-107"/>
      <point x="79" y="-142" type="curve" smooth="yes"/>
      <point x="79" y="-172"/>
      <point x="102" y="-199"/>
      <point x="168" y="-199" type="curve" smooth="yes"/>
      <point x="535" y="-199" type="line"/>
      <point x="535" y="128" type="line"/>
      <point x="568" y="198" type="line"/>
      <point x="568" y="-235" type="line"/>
      <point x="151" y="-235" type="line" smooth="yes"/>
      <point x="82" y="-235"/>
      <point x="45" y="-186"/>
    </contour>
  </outline>
</glyph>
<glyph name="si_RAae" format="1">
  <advance width="681"/>
  <outline>
    <contour>
      <point x="438" y="424" type="line"/>
      <point x="438" y="446" type="line"/>
      <point x="551" y="506" type="line"/>
      <point x="535" y="512"/>
      <point x="519" y="535"/>
      <point x="510" y="554" type="curve"/>
      <point x="505" y="545"/>
      <point x="487" y="527"/>
      <point x="457" y="509" type="curve"/>
      <point x="464" y="525"/>
      <point x="499" y="596"/>
      <point x="505" y="607" type="curve"/>
      <point x="518" y="607"/>
      <point x="525" y="602"/>
      <point x="527" y="591" type="curve" smooth="yes"/>
      <point x="529" y="572"/>
      <point x="536" y="555"/>
      <point x="548" y="541" type="curve" smooth="yes"/>
      <point x="555" y="532"/>
      <point x="566" y="523"/>
      <point x="582" y="514" type="curve"/>
      <point x="582" y="497" type="line"/>
      <point x="482" y="445" type="line"/>
      <point x="586" y="445" type="line"/>
      <point x="586" y="426" type="line"/>
      <point x="563" y="398"/>
      <point x="491" y="328"/>
      <point x="492" y="204" type="curve" smooth="yes"/>
      <point x="492" y="155"/>
      <point x="502" y="71"/>
      <point x="568" y="71" type="curve" smooth="yes"/>
      <point x="597" y="71"/>
      <point x="617" y="96"/>
      <point x="617" y="127" type="curve"/>
      <point x="637" y="127" type="line"/>
      <point x="638" y="118"/>
      <point x="639" y="109"/>
      <point x="639" y="100" type="curve" smooth="yes"/>
      <point x="639" y="50"/>
      <point x="609" y="0"/>
      <point x="554" y="0" type="curve" smooth="yes"/>
      <point x="460" y="0"/>
      <point x="452" y="114"/>
      <point x="452" y="186" type="curve" smooth="yes"/>
      <point x="452" y="314"/>
      <point x="526" y="391"/>
      <point x="556" y="424" type="curve"/>
    </contour>
    <component base="si_Ra"/>
  </outline>
</glyph>
<glyph name="si_RU" format="1">
  <advance width="813"/>
  <outline>
    <contour>
      <point x="442" y="313" type="line"/>
      <point x="442" y="339" type="line"/>
      <point x="728" y="339" type="line"/>
      <point x="727" y="337"/>
      <point x="726" y="332"/>
      <point x="725" y="323" type="curve"/>
      <point x="657" y="223"/>
      <point x="632" y="129"/>
      <point x="632" y="50" type="curve" smooth="yes"/>
      <point x="632" y="-54"/>
      <point x="685" y="-93"/>
      <point x="743" y="-93" type="curve" smooth="yes"/>
      <point x="756" y="-93"/>
      <point x="768" y="-91"/>
      <point x="781" y="-88" type="curve"/>
      <point x="785" y="-106" type="line"/>
      <point x="758" y="-137"/>
      <point x="727" y="-147"/>
      <point x="686" y="-147" type="curve" smooth="yes"/>
      <point x="601" y="-147"/>
      <point x="563" y="-73"/>
      <point x="563" y="14" type="curve" smooth="yes"/>
      <point x="563" y="133"/>
      <point x="637" y="254"/>
      <point x="690" y="313" type="curve"/>
    </contour>
    <component base="si_Ra"/>
  </outline>
</glyph>
<glyph name="si_RUu" format="1">
  <advance width="813"/>
  <outline>
    <contour>
      <point x="437" y="315" type="line"/>
      <point x="437" y="339" type="line"/>
      <point x="728" y="339" type="line"/>
      <point x="728" y="317" type="line"/>
      <point x="601" y="223" type="line"/>
      <point x="751" y="223" type="line"/>
      <point x="751" y="201" type="line"/>
      <point x="705" y="168"/>
      <point x="638" y="96"/>
      <point x="638" y="13" type="curve" smooth="yes"/>
      <point x="638" y="-74"/>
      <point x="696" y="-106"/>
      <point x="785" y="-106" type="curve"/>
      <point x="785" y="-131" type="line"/>
      <point x="760" y="-142"/>
      <point x="733" y="-148"/>
      <point x="708" y="-148" type="curve" smooth="yes"/>
      <point x="617" y="-148"/>
      <point x="569" y="-91"/>
      <point x="569" y="-12" type="curve" smooth="yes"/>
      <point x="569" y="78"/>
      <point x="649" y="155"/>
      <point x="714" y="199" type="curve"/>
      <point x="551" y="199" type="line"/>
      <point x="551" y="218" type="line"/>
      <point x="684" y="315" type="line"/>
    </contour>
    <contour>
      <point x="31" y="213" type="curve" smooth="yes"/>
      <point x="31" y="323"/>
      <point x="94" y="382"/>
      <point x="169" y="415" type="curve" smooth="yes"/>
      <point x="226" y="440"/>
      <point x="324" y="462"/>
      <point x="411" y="526" type="curve" smooth="yes"/>
      <point x="462" y="563"/>
      <point x="474" y="607"/>
      <point x="503" y="607" type="curve" smooth="yes"/>
      <point x="516" y="607"/>
      <point x="526" y="600"/>
      <point x="526" y="589" type="curve" smooth="yes"/>
      <point x="526" y="564"/>
      <point x="503" y="535"/>
      <point x="442" y="500" type="curve" smooth="yes"/>
      <point x="405" y="479"/>
      <point x="335" y="446"/>
      <point x="291" y="434" type="curve"/>
      <point x="340" y="432"/>
      <point x="391" y="410"/>
      <point x="430" y="366" type="curve" smooth="yes"/>
      <point x="465" y="326"/>
      <point x="482" y="281"/>
      <point x="482" y="225" type="curve" smooth="yes"/>
      <point x="482" y="102"/>
      <point x="384" y="0"/>
      <point x="248" y="0" type="curve" smooth="yes"/>
      <point x="124" y="0"/>
      <point x="31" y="89"/>
    </contour>
    <contour>
      <point x="66" y="237" type="curve" smooth="yes"/>
      <point x="66" y="144"/>
      <point x="132" y="73"/>
      <point x="240" y="73" type="curve" smooth="yes"/>
      <point x="345" y="73"/>
      <point x="430" y="149"/>
      <point x="430" y="254" type="curve" smooth="yes"/>
      <point x="430" y="356"/>
      <point x="356" y="411"/>
      <point x="264" y="411" type="curve" smooth="yes"/>
      <point x="167" y="411"/>
      <point x="66" y="339"/>
    </contour>
  </outline>
</glyph>
<glyph name="si_Reph" format="1">
  <advance width="1"/>
  <outline>
    <contour>
      <point x="-39" y="516" type="curve" smooth="yes"/>
      <point x="-39" y="495"/>
      <point x="-20" y="479"/>
      <point x="2" y="479" type="curve" smooth="yes"/>
      <point x="24" y="479"/>
      <point x="43" y="495"/>
      <point x="43" y="516" type="curve" smooth="yes"/>
      <point x="43" y="537"/>
      <point x="24" y="553"/>
      <point x="2" y="553" type="curve" smooth="yes"/>
      <point x="-20" y="553"/>
      <point x="-39" y="537"/>
    </contour>
    <contour>
      <point x="-141" y="535" type="curve" smooth="yes"/>
      <point x="-141" y="599"/>
      <point x="-83" y="636"/>
      <point x="-1" y="636" type="curve" smooth="yes"/>
      <point x="76" y="636"/>
      <point x="140" y="593"/>
      <point x="140" y="522" type="curve" smooth="yes"/>
      <point x="140" y="498"/>
      <point x="132" y="476"/>
      <point x="115" y="457" type="curve"/>
      <point x="81" y="457" type="line"/>
      <point x="94" y="469"/>
      <point x="110" y="494"/>
      <point x="110" y="521" type="curve" smooth="yes"/>
      <point x="110" y="578"/>
      <point x="59" y="609"/>
      <point x="-2" y="609" type="curve" smooth="yes"/>
      <point x="-55" y="609"/>
      <point x="-110" y="588"/>
      <point x="-110" y="535" type="curve" smooth="yes"/>
      <point x="-110" y="496"/>
      <point x="-69" y="477"/>
      <point x="-46" y="475" type="curve"/>
      <point x="-54" y="481"/>
      <point x="-66" y="496"/>
      <point x="-66" y="517" type="curve" smooth="yes"/>
      <point x="-66" y="552"/>
      <point x="-35" y="577"/>
      <point x="1" y="577" type="curve" smooth="yes"/>
      <point x="42" y="577"/>
      <point x="70" y="550"/>
      <point x="70" y="515" type="curve" smooth="yes"/>
      <point x="70" y="476"/>
      <point x="35" y="450"/>
      <point x="-23" y="450" type="curve" smooth="yes"/>
      <point x="-82" y="450"/>
      <point x="-141" y="479"/>
    </contour>
  </outline>
</glyph>
<glyph name="si_S.halant" format="1">
  <advance width="677"/>
  <outline>
    <contour>
      <point x="499" y="413" type="line"/>
      <point x="499" y="680" type="line"/>
      <point x="553" y="638"/>
      <point x="649" y="633"/>
      <point x="649" y="541" type="curve" smooth="yes"/>
      <point x="649" y="497"/>
      <point x="614" y="467"/>
      <point x="571" y="467" type="curve" smooth="yes"/>
      <point x="556" y="467"/>
      <point x="541" y="470"/>
      <point x="526" y="477" type="curve"/>
      <point x="526" y="410" type="line"/>
    </contour>
    <contour>
      <point x="526" y="502" type="line"/>
      <point x="535" y="497"/>
      <point x="546" y="495"/>
      <point x="559" y="495" type="curve" smooth="yes"/>
      <point x="597" y="495"/>
      <point x="612" y="520"/>
      <point x="612" y="544" type="curve" smooth="yes"/>
      <point x="612" y="586"/>
      <point x="573" y="606"/>
      <point x="526" y="637" type="curve"/>
    </contour>
    <component base="uni0DC3"/>
  </outline>
</glyph>
<glyph name="si_ShU" format="1">
  <advance width="631"/>
  <outline>
    <contour>
      <point x="306" y="-80" type="curve" smooth="yes"/>
      <point x="306" y="-30"/>
      <point x="337" y="12"/>
      <point x="385" y="22" type="curve"/>
      <point x="410" y="1" type="line"/>
      <point x="364" y="-2"/>
      <point x="344" y="-34"/>
      <point x="344" y="-63" type="curve" smooth="yes"/>
      <point x="344" y="-109"/>
      <point x="394" y="-132"/>
      <point x="446" y="-132" type="curve" smooth="yes"/>
      <point x="506" y="-132"/>
      <point x="554" y="-94"/>
      <point x="554" y="-45" type="curve" smooth="yes"/>
      <point x="554" y="-42"/>
      <point x="553" y="-39"/>
      <point x="553" y="-36" type="curve"/>
      <point x="583" y="-36" type="line"/>
      <point x="585" y="-45"/>
      <point x="585" y="-60"/>
      <point x="585" y="-70" type="curve" smooth="yes"/>
      <point x="585" y="-122"/>
      <point x="542" y="-192"/>
      <point x="441" y="-192" type="curve" smooth="yes"/>
      <point x="373" y="-192"/>
      <point x="306" y="-149"/>
    </contour>
  </outline>
</glyph>
<glyph name="si_TthIi" format="1">
  <advance width="638"/>
  <outline>
    <contour>
      <point x="448" y="576" type="curve" smooth="yes"/>
      <point x="448" y="547"/>
      <point x="470" y="524"/>
      <point x="499" y="524" type="curve" smooth="yes"/>
      <point x="528" y="524"/>
      <point x="550" y="547"/>
      <point x="550" y="576" type="curve" smooth="yes"/>
      <point x="550" y="604"/>
      <point x="528" y="627"/>
      <point x="499" y="627" type="curve" smooth="yes"/>
      <point x="470" y="627"/>
      <point x="448" y="604"/>
    </contour>
    <contour>
      <point x="112" y="574" type="curve" smooth="yes"/>
      <point x="112" y="666"/>
      <point x="226" y="700"/>
      <point x="335" y="700" type="curve" smooth="yes"/>
      <point x="503" y="700"/>
      <point x="580" y="651"/>
      <point x="580" y="575" type="curve" smooth="yes"/>
      <point x="580" y="535"/>
      <point x="549" y="495"/>
      <point x="499" y="495" type="curve" smooth="yes"/>
      <point x="451" y="495"/>
      <point x="418" y="534"/>
      <point x="418" y="574" type="curve" smooth="yes"/>
      <point x="418" y="588"/>
      <point x="424" y="612"/>
      <point x="441" y="629" type="curve"/>
      <point x="420" y="634"/>
      <point x="379" y="638"/>
      <point x="330" y="638" type="curve" smooth="yes"/>
      <point x="216" y="638"/>
      <point x="151" y="611"/>
      <point x="151" y="566" type="curve" smooth="yes"/>
      <point x="151" y="527"/>
      <point x="194" y="514"/>
      <point x="228" y="514" type="curve" smooth="yes"/>
      <point x="273" y="514"/>
      <point x="307" y="527"/>
      <point x="324" y="535" type="curve"/>
      <point x="323" y="528"/>
      <point x="324" y="521"/>
      <point x="320" y="505" type="curve"/>
      <point x="295" y="497"/>
      <point x="269" y="489"/>
      <point x="226" y="489" type="curve" smooth="yes"/>
      <point x="166" y="489"/>
      <point x="112" y="516"/>
    </contour>
  </outline>
</glyph>
<glyph name="si_TUu" format="1">
  <advance width="704"/>
  <outline>
    <contour>
      <point x="395" y="-129" type="curve" smooth="yes"/>
      <point x="395" y="-93"/>
      <point x="426" y="-71"/>
      <point x="459" y="-67" type="curve"/>
      <point x="404" y="-39" type="line"/>
      <point x="491" y="-14" type="line"/>
      <point x="455" y="0" type="line"/>
      <point x="455" y="21" type="line"/>
      <point x="550" y="-14" type="line"/>
      <point x="463" y="-43" type="line"/>
      <point x="523" y="-76" type="line"/>
      <point x="495" y="-82"/>
      <point x="435" y="-85"/>
      <point x="435" y="-115" type="curve" smooth="yes"/>
      <point x="435" y="-146"/>
      <point x="477" y="-155"/>
      <point x="519" y="-155" type="curve" smooth="yes"/>
      <point x="573" y="-155"/>
      <point x="619" y="-131"/>
      <point x="619" y="-82" type="curve" smooth="yes"/>
      <point x="619" y="-77"/>
      <point x="618" y="-69"/>
      <point x="613" y="-59" type="curve"/>
      <point x="646" y="-59" type="line"/>
      <point x="650" y="-71"/>
      <point x="650" y="-83"/>
      <point x="650" y="-94" type="curve" smooth="yes"/>
      <point x="650" y="-161"/>
      <point x="599" y="-205"/>
      <point x="517" y="-205" type="curve" smooth="yes"/>
      <point x="459" y="-205"/>
      <point x="395" y="-187"/>
    </contour>
    <contour>
      <point x="22" y="25" type="line"/>
      <point x="35" y="130"/>
      <point x="103" y="242"/>
      <point x="159" y="306" type="curve"/>
      <point x="167" y="315"/>
      <point x="179" y="330"/>
      <point x="179" y="349" type="curve" smooth="yes"/>
      <point x="179" y="371"/>
      <point x="170" y="388"/>
      <point x="151" y="388" type="curve" smooth="yes"/>
      <point x="134" y="388"/>
      <point x="120" y="376"/>
      <point x="119" y="356" type="curve" smooth="yes"/>
      <point x="118" y="326"/>
      <point x="111" y="295"/>
      <point x="76" y="295" type="curve" smooth="yes"/>
      <point x="50" y="295"/>
      <point x="37" y="317"/>
      <point x="37" y="342" type="curve" smooth="yes"/>
      <point x="37" y="392"/>
      <point x="78" y="433"/>
      <point x="127" y="433" type="curve" smooth="yes"/>
      <point x="177" y="433"/>
      <point x="206" y="399"/>
      <point x="206" y="356" type="curve" smooth="yes"/>
      <point x="206" y="351"/>
      <point x="206" y="352"/>
      <point x="205" y="347" type="curve"/>
      <point x="271" y="420"/>
      <point x="359" y="435"/>
      <point x="423" y="435" type="curve" smooth="yes"/>
      <point x="562" y="435"/>
      <point x="664" y="334"/>
      <point x="664" y="185" type="curve" smooth="yes"/>
      <point x="664" y="85"/>
      <point x="613" y="-1"/>
      <point x="521" y="-1" type="curve" smooth="yes"/>
      <point x="494" y="-1"/>
      <point x="472" y="5"/>
      <point x="455" y="14" type="curve"/>
      <point x="455" y="44" type="line"/>
      <point x="468" y="36"/>
      <point x="490" y="27"/>
      <point x="511" y="27" type="curve" smooth="yes"/>
      <point x="578" y="27"/>
      <point x="610" y="85"/>
      <point x="610" y="151" type="curve" smooth="yes"/>
      <point x="610" y="272"/>
      <point x="508" y="379"/>
      <point x="367" y="379" type="curve" smooth="yes"/>
      <point x="296" y="379"/>
      <point x="241" y="355"/>
      <point x="201" y="306" type="curve"/>
      <point x="222" y="315"/>
      <point x="249" y="320"/>
      <point x="281" y="320" type="curve" smooth="yes"/>
      <point x="382" y="320"/>
      <point x="459" y="268"/>
      <point x="459" y="162" type="curve" smooth="yes"/>
      <point x="459" y="70"/>
      <point x="392" y="-2"/>
      <point x="282" y="-2" type="curve" smooth="yes"/>
      <point x="134" y="-2"/>
      <point x="140" y="79"/>
      <point x="89" y="79" type="curve" smooth="yes"/>
      <point x="65" y="79"/>
      <point x="53" y="53"/>
      <point x="44" y="9" type="curve"/>
    </contour>
    <contour>
      <point x="71" y="100" type="curve"/>
      <point x="80" y="107"/>
      <point x="92" y="109"/>
      <point x="103" y="109" type="curve" smooth="yes"/>
      <point x="140" y="109"/>
      <point x="176" y="73"/>
      <point x="254" y="73" type="curve" smooth="yes"/>
      <point x="341" y="73"/>
      <point x="417" y="103"/>
      <point x="417" y="188" type="curve" smooth="yes"/>
      <point x="417" y="260"/>
      <point x="350" y="296"/>
      <point x="283" y="296" type="curve" smooth="yes"/>
      <point x="234" y="296"/>
      <point x="188" y="284"/>
      <point x="157" y="260" type="curve"/>
      <point x="126" y="222"/>
      <point x="92" y="165"/>
    </contour>
  </outline>
</glyph>
<glyph name="si_TVUu" format="1">
  <advance width="1001"/>
  <outline>
    <contour>
      <point x="451" y="-138" type="curve" smooth="yes"/>
      <point x="451" y="-80"/>
      <point x="500" y="-40"/>
      <point x="553" y="-40" type="curve" smooth="yes"/>
      <point x="595" y="-40"/>
      <point x="627" y="-55"/>
      <point x="650" y="-91" type="curve"/>
      <point x="620" y="-102" type="line"/>
      <point x="608" y="-83"/>
      <point x="587" y="-68"/>
      <point x="558" y="-68" type="curve" smooth="yes"/>
      <point x="519" y="-68"/>
      <point x="487" y="-92"/>
      <point x="487" y="-129" type="curve" smooth="yes"/>
      <point x="487" y="-166"/>
      <point x="518" y="-191"/>
      <point x="561" y="-191" type="curve" smooth="yes"/>
      <point x="645" y="-191"/>
      <point x="712" y="-117"/>
      <point x="807" y="-117" type="curve" smooth="yes"/>
      <point x="854" y="-117"/>
      <point x="886" y="-134"/>
      <point x="910" y="-160" type="curve"/>
      <point x="910" y="152" type="line"/>
      <point x="943" y="212" type="line"/>
      <point x="943" y="-231" type="line"/>
      <point x="920" y="-231" type="line"/>
      <point x="905" y="-195"/>
      <point x="875" y="-144"/>
      <point x="810" y="-144" type="curve" smooth="yes"/>
      <point x="719" y="-144"/>
      <point x="660" y="-237"/>
      <point x="562" y="-237" type="curve" smooth="yes"/>
      <point x="507" y="-237"/>
      <point x="451" y="-206"/>
    </contour>
    <contour>
      <point x="438" y="165" type="curve" smooth="yes"/>
      <point x="438" y="250"/>
      <point x="503" y="304"/>
      <point x="604" y="304" type="curve" smooth="yes"/>
      <point x="665" y="304" type="line"/>
      <point x="665" y="306"/>
      <point x="665" y="306"/>
      <point x="665" y="308" type="curve" smooth="yes"/>
      <point x="665" y="362"/>
      <point x="631" y="395"/>
      <point x="594" y="395" type="curve" smooth="yes"/>
      <point x="549" y="395"/>
      <point x="541" y="371"/>
      <point x="536" y="355" type="curve" smooth="yes"/>
      <point x="529" y="336"/>
      <point x="520" y="323"/>
      <point x="498" y="323" type="curve" smooth="yes"/>
      <point x="482" y="323"/>
      <point x="461" y="333"/>
      <point x="461" y="360" type="curve" smooth="yes"/>
      <point x="461" y="403"/>
      <point x="511" y="432"/>
      <point x="566" y="432" type="curve" smooth="yes"/>
      <point x="654" y="432"/>
      <point x="697" y="376"/>
      <point x="697" y="290" type="curve" smooth="yes"/>
      <point x="697" y="287"/>
      <point x="697" y="283"/>
      <point x="697" y="280" type="curve"/>
      <point x="607" y="280" type="line" smooth="yes"/>
      <point x="533" y="280"/>
      <point x="473" y="245"/>
      <point x="473" y="180" type="curve" smooth="yes"/>
      <point x="473" y="94"/>
      <point x="585" y="71"/>
      <point x="675" y="71" type="curve" smooth="yes"/>
      <point x="828" y="71"/>
      <point x="919" y="158"/>
      <point x="919" y="300" type="curve" smooth="yes"/>
      <point x="919" y="442"/>
      <point x="815" y="553"/>
      <point x="681" y="553" type="curve" smooth="yes"/>
      <point x="602" y="553"/>
      <point x="539" y="525"/>
      <point x="494" y="470" type="curve"/>
      <point x="462" y="470" type="line"/>
      <point x="511" y="540"/>
      <point x="583" y="577"/>
      <point x="681" y="577" type="curve" smooth="yes"/>
      <point x="841" y="577"/>
      <point x="953" y="443"/>
      <point x="953" y="274" type="curve" smooth="yes"/>
      <point x="953" y="114"/>
      <point x="855" y="0"/>
      <point x="672" y="0" type="curve" smooth="yes"/>
      <point x="551" y="0"/>
      <point x="438" y="46"/>
    </contour>
    <contour>
      <point x="22" y="25" type="line"/>
      <point x="35" y="130"/>
      <point x="103" y="242"/>
      <point x="159" y="306" type="curve"/>
      <point x="167" y="315"/>
      <point x="179" y="330"/>
      <point x="179" y="349" type="curve" smooth="yes"/>
      <point x="179" y="371"/>
      <point x="170" y="388"/>
      <point x="151" y="388" type="curve" smooth="yes"/>
      <point x="134" y="388"/>
      <point x="120" y="376"/>
      <point x="119" y="356" type="curve" smooth="yes"/>
      <point x="118" y="326"/>
      <point x="111" y="295"/>
      <point x="76" y="295" type="curve" smooth="yes"/>
      <point x="50" y="295"/>
      <point x="37" y="317"/>
      <point x="37" y="342" type="curve" smooth="yes"/>
      <point x="37" y="392"/>
      <point x="78" y="433"/>
      <point x="127" y="433" type="curve" smooth="yes"/>
      <point x="177" y="433"/>
      <point x="206" y="399"/>
      <point x="206" y="356" type="curve" smooth="yes"/>
      <point x="206" y="351"/>
      <point x="206" y="352"/>
      <point x="205" y="347" type="curve"/>
      <point x="228" y="363"/>
      <point x="271" y="395"/>
      <point x="346" y="417" type="curve" smooth="yes"/>
      <point x="389" y="430"/>
      <point x="448" y="436"/>
      <point x="506" y="436" type="curve" smooth="yes"/>
      <point x="527" y="436"/>
      <point x="581" y="433"/>
      <point x="603" y="428" type="curve"/>
      <point x="581" y="416"/>
      <point x="517" y="416"/>
      <point x="500" y="408" type="curve"/>
      <point x="458" y="408"/>
      <point x="402" y="403"/>
      <point x="351" y="389" type="curve" smooth="yes"/>
      <point x="290" y="372"/>
      <point x="240" y="343"/>
      <point x="201" y="306" type="curve"/>
      <point x="222" y="315"/>
      <point x="249" y="320"/>
      <point x="281" y="320" type="curve" smooth="yes"/>
      <point x="382" y="320"/>
      <point x="459" y="268"/>
      <point x="459" y="162" type="curve" smooth="yes"/>
      <point x="459" y="70"/>
      <point x="392" y="-2"/>
      <point x="282" y="-2" type="curve" smooth="yes"/>
      <point x="134" y="-2"/>
      <point x="140" y="79"/>
      <point x="89" y="79" type="curve" smooth="yes"/>
      <point x="65" y="79"/>
      <point x="53" y="53"/>
      <point x="44" y="9" type="curve"/>
    </contour>
    <contour>
      <point x="71" y="100" type="curve"/>
      <point x="80" y="107"/>
      <point x="92" y="109"/>
      <point x="103" y="109" type="curve" smooth="yes"/>
      <point x="140" y="109"/>
      <point x="176" y="73"/>
      <point x="254" y="73" type="curve" smooth="yes"/>
      <point x="341" y="73"/>
      <point x="417" y="103"/>
      <point x="417" y="188" type="curve" smooth="yes"/>
      <point x="417" y="260"/>
      <point x="350" y="296"/>
      <point x="283" y="296" type="curve" smooth="yes"/>
      <point x="234" y="296"/>
      <point x="188" y="284"/>
      <point x="157" y="260" type="curve"/>
      <point x="126" y="222"/>
      <point x="92" y="165"/>
    </contour>
  </outline>
</glyph>
<glyph name="si_Ta.reph" format="1">
  <advance width="704"/>
  <outline>
    <contour>
      <point x="371" y="511" type="curve" smooth="yes"/>
      <point x="371" y="490"/>
      <point x="389" y="474"/>
      <point x="412" y="474" type="curve" smooth="yes"/>
      <point x="434" y="474"/>
      <point x="452" y="490"/>
      <point x="452" y="511" type="curve" smooth="yes"/>
      <point x="452" y="532"/>
      <point x="434" y="548"/>
      <point x="412" y="548" type="curve" smooth="yes"/>
      <point x="389" y="548"/>
      <point x="371" y="532"/>
    </contour>
    <contour>
      <point x="268" y="530" type="curve" smooth="yes"/>
      <point x="268" y="594"/>
      <point x="327" y="631"/>
      <point x="408" y="631" type="curve" smooth="yes"/>
      <point x="486" y="631"/>
      <point x="550" y="588"/>
      <point x="550" y="517" type="curve" smooth="yes"/>
      <point x="550" y="493"/>
      <point x="541" y="471"/>
      <point x="524" y="452" type="curve"/>
      <point x="491" y="452" type="line"/>
      <point x="504" y="464"/>
      <point x="519" y="489"/>
      <point x="519" y="516" type="curve" smooth="yes"/>
      <point x="519" y="573"/>
      <point x="468" y="604"/>
      <point x="408" y="604" type="curve" smooth="yes"/>
      <point x="355" y="604"/>
      <point x="300" y="583"/>
      <point x="300" y="530" type="curve" smooth="yes"/>
      <point x="300" y="491"/>
      <point x="341" y="472"/>
      <point x="364" y="470" type="curve"/>
      <point x="356" y="476"/>
      <point x="344" y="491"/>
      <point x="344" y="512" type="curve" smooth="yes"/>
      <point x="344" y="547"/>
      <point x="375" y="572"/>
      <point x="410" y="572" type="curve" smooth="yes"/>
      <point x="452" y="572"/>
      <point x="480" y="545"/>
      <point x="480" y="510" type="curve" smooth="yes"/>
      <point x="480" y="471"/>
      <point x="444" y="445"/>
      <point x="386" y="445" type="curve" smooth="yes"/>
      <point x="328" y="445"/>
      <point x="268" y="474"/>
    </contour>
  </outline>
</glyph>
<glyph name="si_ThI" format="1">
  <advance width="614"/>
  <outline>
    <contour>
      <point x="33" y="235" type="curve" smooth="yes"/>
      <point x="33" y="345"/>
      <point x="134" y="430"/>
      <point x="245" y="430" type="curve"/>
      <point x="245" y="405" type="line"/>
      <point x="148" y="405"/>
      <point x="67" y="336"/>
      <point x="67" y="242" type="curve" smooth="yes"/>
      <point x="67" y="122"/>
      <point x="173" y="71"/>
      <point x="305" y="71" type="curve" smooth="yes"/>
      <point x="433" y="71"/>
      <point x="531" y="154"/>
      <point x="531" y="281" type="curve" smooth="yes"/>
      <point x="531" y="338"/>
      <point x="514" y="388"/>
      <point x="493" y="420" type="curve"/>
      <point x="478" y="387"/>
      <point x="448" y="367"/>
      <point x="405" y="367" type="curve" smooth="yes"/>
      <point x="342" y="367"/>
      <point x="305" y="422"/>
      <point x="305" y="488" type="curve" smooth="yes"/>
      <point x="305" y="538"/>
      <point x="320" y="574"/>
      <point x="347" y="605" type="curve"/>
      <point x="408" y="572"/>
      <point x="479" y="500"/>
      <point x="515" y="438" type="curve" smooth="yes"/>
      <point x="554" y="371"/>
      <point x="566" y="322"/>
      <point x="566" y="252" type="curve" smooth="yes"/>
      <point x="566" y="103"/>
      <point x="450" y="-1"/>
      <point x="295" y="-1" type="curve" smooth="yes"/>
      <point x="151" y="-1"/>
      <point x="33" y="92"/>
    </contour>
    <contour>
      <point x="335" y="492" type="curve" smooth="yes"/>
      <point x="335" y="443"/>
      <point x="355" y="403"/>
      <point x="412" y="403" type="curve" smooth="yes"/>
      <point x="436" y="403"/>
      <point x="464" y="414"/>
      <point x="474" y="448" type="curve"/>
      <point x="444" y="494"/>
      <point x="394" y="540"/>
      <point x="356" y="568" type="curve"/>
      <point x="344" y="550"/>
      <point x="335" y="527"/>
    </contour>
    <contour>
      <point x="106" y="574" type="curve" smooth="yes"/>
      <point x="106" y="666"/>
      <point x="220" y="700"/>
      <point x="328" y="700" type="curve" smooth="yes"/>
      <point x="430" y="700"/>
      <point x="550" y="664"/>
      <point x="550" y="573" type="curve" smooth="yes"/>
      <point x="550" y="526"/>
      <point x="509" y="499"/>
      <point x="470" y="499" type="curve"/>
      <point x="464" y="504"/>
      <point x="455" y="513"/>
      <point x="451" y="521" type="curve"/>
      <point x="464" y="521"/>
      <point x="513" y="524"/>
      <point x="513" y="565" type="curve" smooth="yes"/>
      <point x="513" y="622"/>
      <point x="405" y="635"/>
      <point x="331" y="635" type="curve" smooth="yes"/>
      <point x="212" y="635"/>
      <point x="145" y="611"/>
      <point x="145" y="566" type="curve" smooth="yes"/>
      <point x="145" y="527"/>
      <point x="188" y="514"/>
      <point x="222" y="514" type="curve" smooth="yes"/>
      <point x="267" y="514"/>
      <point x="301" y="527"/>
      <point x="318" y="535" type="curve"/>
      <point x="316" y="528"/>
      <point x="317" y="521"/>
      <point x="314" y="505" type="curve"/>
      <point x="289" y="497"/>
      <point x="263" y="489"/>
      <point x="220" y="489" type="curve" smooth="yes"/>
      <point x="160" y="489"/>
      <point x="106" y="516"/>
    </contour>
  </outline>
</glyph>
<glyph name="si_ThU" format="1">
  <advance width="614"/>
  <outline>
    <contour>
      <point x="53" y="-142" type="curve" smooth="yes"/>
      <point x="53" y="-90"/>
      <point x="100" y="-50"/>
      <point x="155" y="-50" type="curve" smooth="yes"/>
      <point x="197" y="-50"/>
      <point x="234" y="-74"/>
      <point x="249" y="-110" type="curve"/>
      <point x="219" y="-122" type="line"/>
      <point x="212" y="-102"/>
      <point x="188" y="-80"/>
      <point x="155" y="-80" type="curve" smooth="yes"/>
      <point x="118" y="-80"/>
      <point x="87" y="-107"/>
      <point x="87" y="-142" type="curve" smooth="yes"/>
      <point x="87" y="-172"/>
      <point x="110" y="-199"/>
      <point x="176" y="-199" type="curve" smooth="yes"/>
      <point x="524" y="-199" type="line"/>
      <point x="524" y="128" type="line"/>
      <point x="557" y="219" type="line"/>
      <point x="557" y="-235" type="line"/>
      <point x="159" y="-235" type="line" smooth="yes"/>
      <point x="90" y="-235"/>
      <point x="53" y="-186"/>
    </contour>
  </outline>
</glyph>
<glyph name="si_TtTha" format="1">
  <advance width="1016"/>
  <outline>
    <contour>
      <point x="22" y="25" type="line"/>
      <point x="35" y="130"/>
      <point x="103" y="242"/>
      <point x="159" y="306" type="curve"/>
      <point x="167" y="315"/>
      <point x="179" y="330"/>
      <point x="179" y="349" type="curve" smooth="yes"/>
      <point x="179" y="371"/>
      <point x="170" y="388"/>
      <point x="151" y="388" type="curve" smooth="yes"/>
      <point x="134" y="388"/>
      <point x="120" y="376"/>
      <point x="119" y="356" type="curve" smooth="yes"/>
      <point x="118" y="326"/>
      <point x="111" y="295"/>
      <point x="76" y="295" type="curve" smooth="yes"/>
      <point x="50" y="295"/>
      <point x="37" y="317"/>
      <point x="37" y="342" type="curve" smooth="yes"/>
      <point x="37" y="392"/>
      <point x="78" y="433"/>
      <point x="127" y="433" type="curve" smooth="yes"/>
      <point x="177" y="433"/>
      <point x="206" y="399"/>
      <point x="206" y="356" type="curve" smooth="yes"/>
      <point x="206" y="351"/>
      <point x="206" y="352"/>
      <point x="205" y="347" type="curve"/>
      <point x="293" y="410"/>
      <point x="381" y="434"/>
      <point x="548" y="434" type="curve" smooth="yes"/>
      <point x="572" y="434"/>
      <point x="610" y="434"/>
      <point x="643" y="430" type="curve"/>
      <point x="621" y="418"/>
      <point x="584" y="416"/>
      <point x="567" y="408" type="curve"/>
      <point x="398" y="408"/>
      <point x="287" y="385"/>
      <point x="201" y="306" type="curve"/>
      <point x="222" y="315"/>
      <point x="249" y="320"/>
      <point x="281" y="320" type="curve" smooth="yes"/>
      <point x="382" y="320"/>
      <point x="459" y="268"/>
      <point x="459" y="162" type="curve" smooth="yes"/>
      <point x="459" y="70"/>
      <point x="392" y="-2"/>
      <point x="282" y="-2" type="curve" smooth="yes"/>
      <point x="134" y="-2"/>
      <point x="140" y="79"/>
      <point x="89" y="79" type="curve" smooth="yes"/>
      <point x="65" y="79"/>
      <point x="53" y="53"/>
      <point x="44" y="9" type="curve"/>
    </contour>
    <contour>
      <point x="71" y="100" type="curve"/>
      <point x="80" y="107"/>
      <point x="92" y="109"/>
      <point x="103" y="109" type="curve" smooth="yes"/>
      <point x="140" y="109"/>
      <point x="176" y="73"/>
      <point x="254" y="73" type="curve" smooth="yes"/>
      <point x="341" y="73"/>
      <point x="417" y="103"/>
      <point x="417" y="188" type="curve" smooth="yes"/>
      <point x="417" y="260"/>
      <point x="350" y="296"/>
      <point x="283" y="296" type="curve" smooth="yes"/>
      <point x="234" y="296"/>
      <point x="188" y="284"/>
      <point x="157" y="260" type="curve"/>
      <point x="126" y="222"/>
      <point x="92" y="165"/>
    </contour>
    <component base="si_Tha" xOffset="401"/>
  </outline>
</glyph>
<glyph name="si_TtU" format="1">
  <advance width="603"/>
  <outline>
    <contour>
      <point x="44" y="-142" type="curve" smooth="yes"/>
      <point x="44" y="-90"/>
      <point x="90" y="-50"/>
      <point x="146" y="-50" type="curve" smooth="yes"/>
      <point x="187" y="-50"/>
      <point x="225" y="-74"/>
      <point x="240" y="-110" type="curve"/>
      <point x="210" y="-122" type="line"/>
      <point x="202" y="-102"/>
      <point x="178" y="-80"/>
      <point x="146" y="-80" type="curve" smooth="yes"/>
      <point x="109" y="-80"/>
      <point x="78" y="-107"/>
      <point x="78" y="-142" type="curve" smooth="yes"/>
      <point x="78" y="-172"/>
      <point x="101" y="-199"/>
      <point x="166" y="-199" type="curve" smooth="yes"/>
      <point x="515" y="-199" type="line"/>
      <point x="515" y="128" type="line"/>
      <point x="548" y="219" type="line"/>
      <point x="548" y="-235" type="line"/>
      <point x="150" y="-235" type="line" smooth="yes"/>
      <point x="80" y="-235"/>
      <point x="44" y="-186"/>
    </contour>
  </outline>
</glyph>
<glyph name="si_VRa" format="1">
  <advance width="597"/>
  <outline>
    <contour>
      <point x="46" y="-44" type="curve"/>
      <point x="74" y="-44" type="line"/>
      <point x="109" y="-119"/>
      <point x="171" y="-157"/>
      <point x="273" y="-157" type="curve" smooth="yes"/>
      <point x="412" y="-157"/>
      <point x="517" y="-90"/>
      <point x="517" y="50" type="curve" smooth="yes"/>
      <point x="517" y="71"/>
      <point x="511" y="100"/>
      <point x="500" y="112" type="curve"/>
      <point x="518" y="142" type="line"/>
      <point x="540" y="109"/>
      <point x="546" y="75"/>
      <point x="546" y="38" type="curve" smooth="yes"/>
      <point x="546" y="-124"/>
      <point x="428" y="-219"/>
      <point x="289" y="-219" type="curve" smooth="yes"/>
      <point x="160" y="-219"/>
      <point x="82" y="-153"/>
    </contour>
    <component base="si_Va"/>
  </outline>
</glyph>
<glyph name="si_Va.reph" format="1">
  <advance width="597"/>
  <outline>
    <contour>
      <point x="253" y="621" type="curve" smooth="yes"/>
      <point x="253" y="642"/>
      <point x="271" y="658"/>
      <point x="294" y="658" type="curve" smooth="yes"/>
      <point x="316" y="658"/>
      <point x="335" y="642"/>
      <point x="335" y="621" type="curve" smooth="yes"/>
      <point x="335" y="600"/>
      <point x="316" y="584"/>
      <point x="294" y="584" type="curve" smooth="yes"/>
      <point x="271" y="584"/>
      <point x="253" y="600"/>
    </contour>
    <contour>
      <point x="151" y="640" type="curve" smooth="yes"/>
      <point x="151" y="584"/>
      <point x="210" y="555"/>
      <point x="269" y="555" type="curve" smooth="yes"/>
      <point x="327" y="555"/>
      <point x="362" y="581"/>
      <point x="362" y="620" type="curve" smooth="yes"/>
      <point x="362" y="655"/>
      <point x="334" y="682"/>
      <point x="293" y="682" type="curve" smooth="yes"/>
      <point x="257" y="682"/>
      <point x="226" y="657"/>
      <point x="226" y="622" type="curve" smooth="yes"/>
      <point x="226" y="601"/>
      <point x="238" y="586"/>
      <point x="246" y="580" type="curve"/>
      <point x="223" y="582"/>
      <point x="182" y="601"/>
      <point x="182" y="640" type="curve" smooth="yes"/>
      <point x="182" y="693"/>
      <point x="237" y="714"/>
      <point x="290" y="714" type="curve" smooth="yes"/>
      <point x="351" y="714"/>
      <point x="402" y="683"/>
      <point x="402" y="626" type="curve" smooth="yes"/>
      <point x="402" y="599"/>
      <point x="386" y="574"/>
      <point x="373" y="562" type="curve"/>
      <point x="407" y="562" type="line"/>
      <point x="423" y="581"/>
      <point x="432" y="603"/>
      <point x="432" y="627" type="curve" smooth="yes"/>
      <point x="432" y="698"/>
      <point x="368" y="741"/>
      <point x="291" y="741" type="curve" smooth="yes"/>
      <point x="209" y="741"/>
      <point x="151" y="704"/>
    </contour>
    <contour>
      <point x="33" y="165" type="curve" smooth="yes"/>
      <point x="33" y="250"/>
      <point x="98" y="304"/>
      <point x="199" y="304" type="curve" smooth="yes"/>
      <point x="260" y="304" type="line"/>
      <point x="260" y="306"/>
      <point x="260" y="306"/>
      <point x="260" y="308" type="curve" smooth="yes"/>
      <point x="260" y="362"/>
      <point x="226" y="395"/>
      <point x="189" y="395" type="curve" smooth="yes"/>
      <point x="144" y="395"/>
      <point x="136" y="371"/>
      <point x="130" y="355" type="curve" smooth="yes"/>
      <point x="124" y="336"/>
      <point x="115" y="323"/>
      <point x="93" y="323" type="curve" smooth="yes"/>
      <point x="77" y="323"/>
      <point x="56" y="333"/>
      <point x="56" y="360" type="curve" smooth="yes"/>
      <point x="56" y="403"/>
      <point x="106" y="432"/>
      <point x="161" y="432" type="curve" smooth="yes"/>
      <point x="249" y="432"/>
      <point x="292" y="376"/>
      <point x="292" y="290" type="curve" smooth="yes"/>
      <point x="292" y="287"/>
      <point x="292" y="283"/>
      <point x="292" y="280" type="curve"/>
      <point x="202" y="280" type="line" smooth="yes"/>
      <point x="128" y="280"/>
      <point x="68" y="245"/>
      <point x="68" y="180" type="curve" smooth="yes"/>
      <point x="68" y="94"/>
      <point x="180" y="71"/>
      <point x="270" y="71" type="curve" smooth="yes"/>
      <point x="423" y="71"/>
      <point x="514" y="158"/>
      <point x="514" y="300" type="curve" smooth="yes"/>
      <point x="514" y="442"/>
      <point x="410" y="553"/>
      <point x="276" y="553" type="curve" smooth="yes"/>
      <point x="197" y="553"/>
      <point x="134" y="525"/>
      <point x="89" y="470" type="curve"/>
      <point x="57" y="470" type="line"/>
      <point x="106" y="540"/>
      <point x="178" y="577"/>
      <point x="276" y="577" type="curve" smooth="yes"/>
      <point x="436" y="577"/>
      <point x="548" y="443"/>
      <point x="548" y="274" type="curve" smooth="yes"/>
      <point x="548" y="114"/>
      <point x="450" y="0"/>
      <point x="267" y="0" type="curve" smooth="yes"/>
      <point x="146" y="0"/>
      <point x="33" y="46"/>
    </contour>
  </outline>
</glyph>
<glyph name="si_YU" format="1">
  <advance width="636"/>
  <outline>
    <contour>
      <point x="50" y="-142" type="curve" smooth="yes"/>
      <point x="50" y="-90"/>
      <point x="96" y="-50"/>
      <point x="152" y="-50" type="curve" smooth="yes"/>
      <point x="193" y="-50"/>
      <point x="231" y="-74"/>
      <point x="246" y="-110" type="curve"/>
      <point x="216" y="-122" type="line"/>
      <point x="208" y="-102"/>
      <point x="184" y="-80"/>
      <point x="152" y="-80" type="curve" smooth="yes"/>
      <point x="115" y="-80"/>
      <point x="84" y="-107"/>
      <point x="84" y="-142" type="curve" smooth="yes"/>
      <point x="84" y="-172"/>
      <point x="107" y="-199"/>
      <point x="172" y="-199" type="curve" smooth="yes"/>
      <point x="552" y="-199" type="line"/>
      <point x="552" y="128" type="line"/>
      <point x="584" y="198" type="line"/>
      <point x="584" y="-235" type="line"/>
      <point x="156" y="-235" type="line" smooth="yes"/>
      <point x="86" y="-235"/>
      <point x="50" y="-186"/>
    </contour>
    <contour>
      <point x="30" y="185" type="curve" smooth="yes"/>
      <point x="30" y="305"/>
      <point x="106" y="389"/>
      <point x="223" y="389" type="curve" smooth="yes"/>
      <point x="233" y="389"/>
      <point x="242" y="388"/>
      <point x="251" y="387" type="curve"/>
      <point x="251" y="359" type="line"/>
      <point x="240" y="361"/>
      <point x="230" y="362"/>
      <point x="219" y="362" type="curve" smooth="yes"/>
      <point x="130" y="362"/>
      <point x="64" y="298"/>
      <point x="64" y="212" type="curve" smooth="yes"/>
      <point x="64" y="126"/>
      <point x="118" y="71"/>
      <point x="193" y="71" type="curve" smooth="yes"/>
      <point x="242" y="71"/>
      <point x="295" y="97"/>
      <point x="295" y="146" type="curve" smooth="yes"/>
      <point x="295" y="176" type="line"/>
      <point x="322" y="176" type="line"/>
      <point x="322" y="147" type="line" smooth="yes"/>
      <point x="322" y="98"/>
      <point x="378" y="71"/>
      <point x="435" y="71" type="curve" smooth="yes"/>
      <point x="517" y="71"/>
      <point x="555" y="120"/>
      <point x="555" y="186" type="curve" smooth="yes"/>
      <point x="555" y="272"/>
      <point x="494" y="300"/>
      <point x="408" y="300" type="curve" smooth="yes"/>
      <point x="378" y="300"/>
      <point x="349" y="296"/>
      <point x="322" y="289" type="curve"/>
      <point x="321" y="296"/>
      <point x="321" y="303"/>
      <point x="321" y="310" type="curve" smooth="yes"/>
      <point x="321" y="389"/>
      <point x="367" y="433"/>
      <point x="451" y="433" type="curve" smooth="yes"/>
      <point x="511" y="433"/>
      <point x="558" y="409"/>
      <point x="558" y="357" type="curve" smooth="yes"/>
      <point x="558" y="338"/>
      <point x="548" y="312"/>
      <point x="521" y="303" type="curve"/>
      <point x="564" y="277"/>
      <point x="592" y="228"/>
      <point x="592" y="167" type="curve" smooth="yes"/>
      <point x="592" y="71"/>
      <point x="528" y="-1"/>
      <point x="436" y="-1" type="curve" smooth="yes"/>
      <point x="370" y="-1"/>
      <point x="327" y="25"/>
      <point x="307" y="71" type="curve"/>
      <point x="284" y="23"/>
      <point x="244" y="-1"/>
      <point x="186" y="-1" type="curve" smooth="yes"/>
      <point x="85" y="-1"/>
      <point x="30" y="82"/>
    </contour>
    <contour>
      <point x="350" y="319" type="curve"/>
      <point x="366" y="323"/>
      <point x="390" y="325"/>
      <point x="410" y="325" type="curve" smooth="yes"/>
      <point x="446" y="325"/>
      <point x="475" y="321"/>
      <point x="497" y="314" type="curve"/>
      <point x="510" y="320"/>
      <point x="519" y="334"/>
      <point x="519" y="350" type="curve" smooth="yes"/>
      <point x="519" y="382"/>
      <point x="486" y="397"/>
      <point x="451" y="397" type="curve" smooth="yes"/>
      <point x="392" y="397"/>
      <point x="353" y="373"/>
    </contour>
  </outline>
</glyph>
